<svg width="131" height="82" viewBox="0 0 131 82" fill="none" xmlns="http://www.w3.org/2000/svg">
<path d="M69.578 44.5568C69.578 44.5568 67.6773 46.8905 65.512 46.8905C63.3467 46.8905 61.4461 44.5568 61.4461 44.5568C61.4461 44.5568 63.3467 42.2231 65.512 42.2231C67.6533 42.2231 69.578 44.5568 69.578 44.5568ZM73.4755 40.4909C71.1418 40.4909 69.578 42.7524 69.578 42.7524C69.578 42.7524 71.6229 45.3267 73.5717 45.3267C75.9054 45.3267 77.4692 43.2817 77.4692 43.2817C77.4692 43.2817 75.8092 40.4909 73.4755 40.4909ZM79.6345 36.5934C77.4452 37.3633 76.6753 40.0097 76.6753 40.0097C76.6753 40.0097 79.4421 41.7901 81.2946 41.1405C83.4839 40.3706 84.326 37.9407 84.326 37.9407C84.326 37.9407 81.8239 35.8235 79.6345 36.5934ZM83.8929 30.8433C82.0885 32.3109 82.305 35.0777 82.305 35.0777C82.305 35.0777 85.5049 35.7754 87.0446 34.5484C88.849 33.0808 88.7769 30.5065 88.7769 30.5065C88.7769 30.5065 85.6973 29.3758 83.8929 30.8433ZM86.0823 23.9385C84.8793 25.9354 86.0101 28.4615 86.0101 28.4615C86.0101 28.4615 89.2821 28.0525 90.2926 26.3684C91.4955 24.3715 90.5572 21.9657 90.5572 21.9657C90.5572 21.9657 87.2852 21.9416 86.0823 23.9385ZM85.6011 16.793C85.144 19.0786 87.0687 21.0755 87.0687 21.0755C87.0687 21.0755 90.0039 19.5838 90.3888 17.6591C90.8459 15.3736 89.1618 13.4248 89.1618 13.4248C89.1618 13.4248 86.0582 14.5074 85.6011 16.793ZM82.8584 10.2731C83.2674 12.5587 85.7695 13.7376 85.7695 13.7376C85.7695 13.7376 87.9589 11.2836 87.622 9.35886C87.213 7.07328 84.9515 5.87034 84.9515 5.87034C84.9515 5.87034 82.4494 7.96345 82.8584 10.2731ZM77.8542 4.85987C78.9128 6.92893 81.6555 7.28981 81.6555 7.28981C81.6555 7.28981 83.0268 4.30652 82.1366 2.55023C81.078 0.481175 78.5519 0 78.5519 0C78.5519 0 76.7956 2.79082 77.8542 4.85987ZM53.5308 43.3058C53.5308 43.3058 55.1186 45.3508 57.4283 45.3508C59.4011 45.3508 61.422 42.7765 61.422 42.7765C61.422 42.7765 59.8342 40.515 57.5245 40.515C55.2149 40.4909 53.5308 43.3058 53.5308 43.3058ZM46.674 37.9407C46.674 37.9407 47.492 40.3706 49.7054 41.1405C51.5579 41.7901 54.3247 40.0097 54.3247 40.0097C54.3247 40.0097 53.5789 37.3392 51.3655 36.5934C49.1521 35.8476 46.674 37.9407 46.674 37.9407ZM42.2472 30.5065C42.2472 30.5065 42.175 33.0808 43.9794 34.5484C45.4951 35.7994 48.719 35.0777 48.719 35.0777C48.719 35.0777 48.9355 32.3109 47.1311 30.8433C45.3267 29.3758 42.2472 30.5065 42.2472 30.5065ZM40.4428 21.9657C40.4428 21.9657 39.5045 24.3715 40.7074 26.3684C41.7179 28.0525 44.9899 28.4615 44.9899 28.4615C44.9899 28.4615 46.1207 25.9354 44.9177 23.9385C43.7148 21.9416 40.4428 21.9657 40.4428 21.9657ZM41.8623 13.4248C41.8623 13.4248 40.1781 15.3736 40.6353 17.6591C41.0202 19.5838 43.9554 21.0755 43.9554 21.0755C43.9554 21.0755 45.8801 19.0786 45.4229 16.793C44.9418 14.5074 41.8623 13.4248 41.8623 13.4248ZM46.0725 5.84628C46.0725 5.84628 43.787 7.04922 43.402 9.3348C43.0652 11.2595 45.2545 13.7135 45.2545 13.7135C45.2545 13.7135 47.7566 12.5587 48.1656 10.249C48.5506 7.96345 46.0725 5.84628 46.0725 5.84628ZM52.4722 0.0240588C52.4722 0.0240588 49.946 0.505234 48.8874 2.57429C47.9972 4.33058 49.3686 7.31387 49.3686 7.31387C49.3686 7.31387 52.1113 6.95298 53.1699 4.88393C54.2285 2.79082 52.4722 0.0240588 52.4722 0.0240588Z" fill="white"/>
<path d="M72.9943 27.6435C72.1763 27.6435 71.4305 27.8841 70.805 28.3171L67.4367 24.5399L76.6753 11.3316C77.0603 10.7783 76.6994 9.81592 76.6994 9.81592L65.512 22.3746L54.3247 9.81592C54.3247 9.81592 53.9638 10.7783 54.3488 11.3316L63.5873 24.5399L60.2191 28.3171C59.5936 27.8841 58.8478 27.6435 58.0298 27.6435C55.8885 27.6435 54.1563 29.3757 54.1563 31.5169C54.1563 33.6582 55.8885 35.3904 58.0298 35.3904C59.7139 35.3904 61.1574 34.3077 61.6626 32.8161L65.488 27.3307L69.3133 32.8161C69.8426 34.3318 71.2621 35.3904 72.9462 35.3904C75.0874 35.3904 76.8197 33.6582 76.8197 31.5169C76.8437 29.3757 75.1115 27.6435 72.9943 27.6435ZM57.8854 33.61C56.6584 33.61 55.672 32.6236 55.672 31.3966C55.672 30.1696 56.6584 29.1832 57.8854 29.1832C59.1124 29.1832 60.0988 30.1696 60.0988 31.3966C60.0988 32.6236 59.1124 33.61 57.8854 33.61ZM65.512 24.7564C65.1993 24.7564 64.9587 24.5158 64.9587 24.2031C64.9587 23.8903 65.1993 23.6497 65.512 23.6497C65.8248 23.6497 66.0654 23.8903 66.0654 24.2031C66.0654 24.5158 65.8008 24.7564 65.512 24.7564ZM72.8259 33.61C71.5989 33.61 70.6125 32.6236 70.6125 31.3966C70.6125 30.1696 71.5989 29.1832 72.8259 29.1832C74.0529 29.1832 75.0393 30.1696 75.0393 31.3966C75.0393 32.6236 74.0529 33.61 72.8259 33.61Z" fill="white"/>
<path d="M4.3787 65.3194V68.1583C4.3787 68.7117 4.52305 69.0966 4.78769 69.3132C5.02828 69.4816 5.43728 69.5778 6.01469 69.5778H6.5921V70.3236H0.0962351V69.5778H0.38494C0.890174 69.5778 1.227 69.5297 1.39541 69.4094C1.61194 69.2651 1.73223 68.9523 1.73223 68.4952V60.3152C1.73223 59.7618 1.56382 59.401 1.227 59.3047C1.03453 59.2325 0.769881 59.2085 0.408999 59.2085H0V58.4627C0.697704 58.4145 1.70817 58.3424 3.07952 58.2461C4.52305 58.174 5.53352 58.1499 6.11093 58.1499C7.84316 58.1499 9.16639 58.5108 10.1047 59.2566C10.9467 59.9303 11.3798 60.8204 11.3798 61.879C11.3798 63.5872 10.4415 64.6939 8.56492 65.2472C7.96345 65.4157 7.28981 65.5119 6.56804 65.5119C5.84628 65.5119 5.12452 65.4397 4.3787 65.3194ZM4.3787 59.1363V64.5495C4.76364 64.6458 5.24481 64.6939 5.75005 64.6939C6.95298 64.6939 7.74692 64.2608 8.20404 63.3707C8.42057 62.9376 8.5168 62.4083 8.5168 61.8068C8.5168 60.9407 8.27622 60.243 7.77098 59.7618C7.28981 59.2807 6.5921 59.016 5.72599 59.016C5.29293 58.992 4.83581 59.0401 4.3787 59.1363Z" fill="white"/>
<path d="M12.9196 59.2085V58.4626H18.9824V59.2085H18.6696C17.7073 59.2085 17.2261 59.6896 17.2261 60.652V68.2064C17.2261 68.7117 17.3464 69.0726 17.587 69.2891C17.8275 69.5056 18.2125 69.6019 18.7177 69.6019H19.0064V70.3477H12.9436V69.6019H13.2083C14.1225 69.6019 14.6037 69.1688 14.6037 68.2786V60.652C14.6037 60.1468 14.5074 59.7618 14.2909 59.5453C14.0744 59.3288 13.7135 59.2085 13.2083 59.2085H12.9196Z" fill="white"/>
<path d="M28.7021 59.4491V68.1343C28.7021 68.6877 28.8465 69.0726 29.1111 69.2891C29.3517 69.4575 29.7607 69.5538 30.3622 69.5538H30.8193V70.2996H23.9625V69.5538H24.6121C25.5985 69.5538 26.0797 69.0726 26.0797 68.1343V59.4491H23.8182C23.3611 59.4491 23.0483 59.4732 22.8318 59.5453C22.519 59.6416 22.2784 59.8581 22.1341 60.1709C22.0138 60.4596 21.8694 60.9648 21.7491 61.6866H20.9792L21.3161 58.1259H21.9416C22.11 58.2943 22.2303 58.3665 22.3025 58.3905C22.4228 58.4386 22.6152 58.4386 22.8558 58.4386H31.926C32.2869 58.4386 32.5996 58.3183 32.8402 58.1018H33.4658L33.8026 61.6625H33.0327C32.9365 61.0851 32.8402 60.6761 32.7921 60.4836C32.6237 60.0024 32.4072 59.6897 32.1185 59.5694C31.8779 59.4732 31.4929 59.425 30.9877 59.425H28.7021V59.4491Z" fill="white"/>
<path d="M45.7117 61.2295C45.6395 60.6521 45.5433 60.2431 45.423 60.0266C45.2305 59.6898 44.8937 59.4973 44.4125 59.4973H40.2263V63.7797H43.3058C43.811 63.7797 44.196 63.6835 44.4125 63.467C44.629 63.2504 44.7493 62.9136 44.7493 62.4084H45.5192V66.2097H44.7493C44.7493 65.536 44.5328 65.103 44.1238 64.9586C43.8832 64.8624 43.4983 64.8383 43.0171 64.8383H40.2263V68.2787C40.2263 68.6156 40.2503 68.8561 40.3225 68.9764C40.4188 69.1689 40.6112 69.2651 40.924 69.2651H44.0997C44.7975 69.2651 45.3027 69.1208 45.6155 68.808C45.9042 68.5434 46.1207 68.0381 46.2891 67.3404H47.0109L46.7943 70.3478H35.3183V69.602H36.0882C37.0746 69.602 37.5798 69.1449 37.5798 68.2306V60.628C37.5798 60.0747 37.4355 59.6898 37.1708 59.4732C36.9302 59.3048 36.5212 59.2326 35.9198 59.2326H35.7273V58.4868H46.2169L46.4094 61.2536H45.7117V61.2295Z" fill="white"/>
<path d="M53.6029 65.2714V68.1825C53.6029 69.0968 54.1081 69.5779 55.1186 69.5779H55.696V70.3237H49.0317V69.5779H49.3445C49.9219 69.5779 50.3309 69.4817 50.5715 69.3133C50.8602 69.0968 51.0046 68.7359 51.0046 68.1825V60.6521C51.0046 60.0988 50.8843 59.7138 50.6677 59.5214C50.4512 59.3289 50.0422 59.2086 49.4889 59.2086H49.0799V58.4628L51.5338 58.3184C52.833 58.2222 53.8675 58.1741 54.6615 58.1741C56.081 58.1741 57.1877 58.2703 58.0057 58.4628C58.8237 58.6552 59.4492 58.9921 59.9304 59.4973C60.5318 60.0988 60.8446 60.8205 60.8446 61.6626C60.8446 63.2024 59.9063 64.2128 58.0297 64.7421C58.4628 65.103 58.9921 65.6804 59.5695 66.4743C59.9304 66.9796 60.5078 67.7013 61.3017 68.6396C61.6867 69.0246 62.0716 69.2892 62.4565 69.4576C62.7934 69.602 63.2505 69.6982 63.8279 69.7704V70.5162C63.5392 70.5403 63.1542 70.5403 62.649 70.5403C61.1574 70.5403 60.0988 70.3719 59.4251 70.035C59.0642 69.8666 58.7274 69.626 58.4147 69.2892C58.0778 68.9524 57.6688 68.4712 57.2358 67.8457L56.1291 66.33C55.8404 65.9691 55.5276 65.6082 55.1427 65.2714H53.6029ZM53.6029 58.9921V64.4775H54.3487C55.4795 64.4775 56.3215 64.3091 56.899 63.9482C57.6207 63.5151 57.9816 62.7693 57.9816 61.7348C57.9816 59.9063 56.8508 58.9921 54.5893 58.9921H53.6029Z" fill="white"/>
<path d="M66.1135 70.2756L65.6323 66.8112H66.3781C67.0037 68.7118 68.0863 69.6742 69.6261 69.6742C70.4922 69.6742 71.1418 69.3614 71.5508 68.7599C71.7433 68.4712 71.8395 68.1585 71.8395 67.8216C71.8395 67.172 71.4786 66.5706 70.7809 66.0413C70.5163 65.8488 69.8907 65.4879 68.8562 64.9346C67.8457 64.4053 67.124 63.9482 66.715 63.5392C66.0654 62.9137 65.7286 62.1678 65.7286 61.2777C65.7286 60.5799 65.9451 59.9544 66.3781 59.4492C66.7871 58.968 67.3405 58.6071 68.0382 58.3906C68.5194 58.2462 69.0246 58.1741 69.602 58.1741C70.2275 58.1741 70.7809 58.2462 71.2861 58.3665C72.056 58.5831 72.441 58.6793 72.4891 58.6793C72.6334 58.6793 72.7778 58.6071 72.8981 58.4628H73.3071L73.668 61.5423H72.8981C72.7056 60.7965 72.3207 60.195 71.7914 59.7138C71.214 59.2327 70.5644 58.968 69.7945 58.968C69.3374 58.968 68.9284 59.0642 68.5675 59.2808C68.1344 59.5214 67.9179 59.8582 67.9179 60.2912C67.9179 60.8446 68.2547 61.3498 68.9524 61.8069C69.5298 62.1197 70.1073 62.4325 70.6847 62.7452C71.7914 63.3708 72.6334 63.9482 73.2108 64.5015C73.9326 65.2233 74.2935 66.0653 74.2935 67.0277C74.2935 68.399 73.6198 69.4336 72.2725 70.1072C71.647 70.42 70.9493 70.5884 70.2276 70.5884C69.7704 70.5884 69.169 70.4922 68.375 70.2756C67.5811 70.0591 67.124 69.9629 66.9556 69.9629C66.7871 69.9629 66.6428 70.0591 66.5466 70.2756H66.1135Z" fill="white"/>
<path d="M84.0132 59.4491V68.1343C84.0132 68.6877 84.1576 69.0726 84.4222 69.2891C84.6628 69.4575 85.0718 69.5538 85.6733 69.5538H86.1304V70.2996H79.2736V69.5538H79.9232C80.9096 69.5538 81.3908 69.0726 81.3908 68.1343V59.4491H79.1293C78.6722 59.4491 78.3594 59.4732 78.1429 59.5453C77.8301 59.6416 77.5895 59.8581 77.4452 60.1709C77.3249 60.4596 77.1805 60.9648 77.0602 61.6866H76.2903L76.6272 58.1259H77.2527C77.4211 58.2943 77.5414 58.3665 77.6136 58.3905C77.7339 58.4386 77.9263 58.4386 78.1669 58.4386H87.2371C87.598 58.4386 87.9107 58.3183 88.1513 58.1018H88.7768L89.1137 61.6625H88.3438C88.2476 61.0851 88.1513 60.6761 88.1032 60.4836C87.9348 60.0024 87.7183 59.6897 87.4296 59.5694C87.189 59.4732 86.804 59.425 86.2988 59.425H84.0132V59.4491Z" fill="white"/>
<path d="M99.5552 65.5361V68.1585C99.5552 68.808 99.7717 69.2171 100.181 69.4095C100.421 69.5058 100.758 69.5779 101.215 69.5779H101.504V70.3238H95.0081V69.5779H95.4892C96.4516 69.5779 96.9328 69.1208 96.9328 68.2066V65.5601L92.8428 60.0988C92.5059 59.6417 92.1691 59.353 91.8564 59.2808C91.6639 59.2327 91.4233 59.2086 91.1105 59.2086H90.9662V58.4628H97.1733V59.2086H96.9328C96.4035 59.2086 96.0907 59.3048 95.9463 59.4732C95.8261 59.6657 95.8501 59.8822 96.0666 60.171L99.1221 64.1888L101.336 60.7243C101.576 60.3634 101.696 60.0507 101.696 59.8101C101.696 59.4011 101.36 59.1845 100.662 59.1845H100.421V58.4387H104.92V59.1845C104.367 59.2327 103.934 59.3289 103.669 59.5214C103.405 59.6898 103.116 60.0025 102.803 60.5078L99.5552 65.5361Z" fill="white"/>
<path d="M118.369 67.0036L116.974 70.3237H106.773V69.5779H107.086C107.855 69.5779 108.337 69.3854 108.529 69.0005C108.625 68.808 108.673 68.5434 108.673 68.2306V60.604C108.673 59.6898 108.168 59.2326 107.182 59.2326H106.821V58.4868H113.269V59.2326H112.715C111.777 59.2326 111.296 59.6657 111.296 60.5559V68.399C111.296 68.7358 111.368 68.9764 111.512 69.0967C111.657 69.217 111.897 69.2651 112.258 69.2651H114.688C115.386 69.2651 115.987 69.0005 116.444 68.4712C116.661 68.2306 117.046 67.7494 117.623 67.0036H118.369Z" fill="white"/>
<path d="M129.701 61.2295C129.629 60.6521 129.532 60.2431 129.412 60.0266C129.22 59.6898 128.883 59.4973 128.402 59.4973H124.215V63.7797H127.295C127.8 63.7797 128.185 63.6835 128.402 63.467C128.618 63.2504 128.738 62.9136 128.738 62.4084H129.508V66.2097H128.738C128.738 65.536 128.522 65.103 128.113 64.9586C127.872 64.8624 127.487 64.8383 127.006 64.8383H124.215V68.2787C124.215 68.6156 124.239 68.8561 124.312 68.9764C124.408 69.1689 124.6 69.2651 124.913 69.2651H128.089C128.787 69.2651 129.292 69.1208 129.605 68.808C129.893 68.5434 130.11 68.0381 130.278 67.3404H131L130.783 70.3478H119.307V69.602H120.077C121.064 69.602 121.569 69.1449 121.569 68.2306V60.628C121.569 60.0747 121.425 59.6898 121.16 59.4732C120.919 59.3048 120.51 59.2326 119.909 59.2326H119.716V58.4868H130.206L130.399 61.2536H129.701V61.2295Z" fill="white"/>
<path d="M34.7409 81.0302V76.9402H36.2807C36.5934 76.9402 36.834 76.9883 37.0265 77.0605C37.219 77.1327 37.3633 77.277 37.4595 77.4454C37.5558 77.6138 37.628 77.8063 37.628 77.9747C37.628 78.1431 37.5798 78.3115 37.4836 78.48C37.3874 78.6243 37.243 78.7687 37.0505 78.8649C37.2911 78.9371 37.4836 79.0574 37.628 79.2258C37.7723 79.3942 37.8204 79.6107 37.8204 79.8513C37.8204 80.0438 37.7723 80.2122 37.7001 80.3806C37.628 80.549 37.5077 80.6693 37.4114 80.7655C37.2911 80.8618 37.1468 80.9339 36.9543 80.958C36.7859 81.0061 36.5453 81.0302 36.3047 81.0302H34.7409ZM35.2943 78.6724H36.1844C36.425 78.6724 36.5934 78.6484 36.6897 78.6243C36.834 78.5762 36.9303 78.504 37.0024 78.4318C37.0746 78.3597 37.0987 78.2153 37.0987 78.071C37.0987 77.9266 37.0746 77.8063 37.0024 77.7101C36.9303 77.6138 36.834 77.5417 36.7137 77.4935C36.5934 77.4454 36.3769 77.4454 36.0882 77.4454H35.2702V78.6724H35.2943ZM35.2943 80.549H36.3047C36.4731 80.549 36.5934 80.549 36.6656 80.5249C36.7859 80.5009 36.9062 80.4768 36.9784 80.4047C37.0505 80.3565 37.1227 80.2844 37.1949 80.1881C37.243 80.0919 37.2671 79.9716 37.2671 79.8513C37.2671 79.7069 37.219 79.5626 37.1468 79.4423C37.0746 79.322 36.9543 79.2498 36.81 79.2017C36.6656 79.1536 36.4731 79.1295 36.2085 79.1295H35.2702V80.549H35.2943Z" fill="white"/>
<path d="M40.2744 81.0302V76.9402H43.2336V77.4214H40.8278V78.6724H43.0893V79.1536H40.8278V80.549H43.3299V81.0302H40.2744Z" fill="white"/>
<path d="M45.447 81.0302L47.0108 76.9402H47.5883L49.2724 81.0302H48.6468L48.1657 79.7791H46.4575L46.0004 81.0302H45.447ZM46.6259 79.3701H48.0213L47.5883 78.2394C47.468 77.9025 47.3717 77.6138 47.2995 77.3973C47.2514 77.662 47.1793 77.9266 47.083 78.1672L46.6259 79.3701Z" fill="white"/>
<path d="M53.9398 76.9402H54.4932V79.2979C54.4932 79.7069 54.445 80.0438 54.3488 80.2844C54.2526 80.5249 54.0842 80.7174 53.8436 80.8858C53.603 81.0302 53.2902 81.1024 52.8812 81.1024C52.4963 81.1024 52.1835 81.0302 51.9429 80.9099C51.7023 80.7896 51.5339 80.5971 51.4136 80.3325C51.3174 80.0919 51.2693 79.731 51.2693 79.2979V76.9402H51.8226V79.2979C51.8226 79.6588 51.8467 79.9235 51.9189 80.0919C51.991 80.2603 52.0873 80.3806 52.2557 80.4768C52.4241 80.5731 52.6166 80.6212 52.8572 80.6212C53.2662 80.6212 53.5308 80.5249 53.6992 80.3565C53.8676 80.1641 53.9639 79.8272 53.9639 79.322L53.9398 76.9402Z" fill="white"/>
<path d="M58.0779 81.0302V77.4214H56.7306V76.9402H59.9785V77.4214H58.6312V81.0302H58.0779Z" fill="white"/>
<path d="M63.5874 81.0302V79.2979L61.9995 76.9402H62.6491L63.4671 78.1672C63.6114 78.4078 63.7558 78.6243 63.8761 78.8649C63.9964 78.6484 64.1407 78.4078 64.3332 78.1431L65.1272 76.9402H65.7527L64.1167 79.2979V81.0302H63.5874Z" fill="white"/>
<path d="M71.0696 79.7309L71.5749 79.6828C71.5989 79.8993 71.6471 80.0437 71.7433 80.188C71.8395 80.3083 71.9598 80.4286 72.1523 80.5008C72.3448 80.573 72.5372 80.6211 72.7778 80.6211C72.9943 80.6211 73.1628 80.597 73.3312 80.5249C73.4996 80.4527 73.5958 80.3805 73.692 80.2843C73.7642 80.188 73.8123 80.0677 73.8123 79.9234C73.8123 79.8031 73.7642 79.6828 73.692 79.5866C73.6199 79.4903 73.4996 79.4181 73.3312 79.346C73.2109 79.2979 72.9703 79.2257 72.6094 79.1535C72.2485 79.0813 71.9598 78.9851 71.8155 78.8889C71.623 78.7926 71.4786 78.6483 71.3824 78.5039C71.2862 78.3596 71.2381 78.1912 71.2381 77.9987C71.2381 77.7822 71.2862 77.5897 71.4065 77.4213C71.5268 77.2529 71.6952 77.1085 71.9117 77.0123C72.1282 76.916 72.3929 76.8679 72.6575 76.8679C72.9703 76.8679 73.2349 76.916 73.4515 77.0123C73.692 77.1085 73.8605 77.2529 73.9808 77.4453C74.101 77.6378 74.1732 77.8543 74.1732 78.0949L73.6439 78.143C73.6199 77.8784 73.5236 77.6859 73.3552 77.5656C73.1868 77.4453 72.9462 77.3732 72.6335 77.3732C72.2966 77.3732 72.0561 77.4453 71.9117 77.5416C71.7673 77.6619 71.6952 77.8062 71.6952 77.9746C71.6952 78.119 71.7433 78.2393 71.8636 78.3355C71.9598 78.4317 72.2485 78.528 72.6816 78.6242C73.1146 78.7204 73.4274 78.8167 73.5958 78.8889C73.8364 79.0091 74.0048 79.1294 74.1251 79.2979C74.2454 79.4663 74.2935 79.6587 74.2935 79.8753C74.2935 80.0918 74.2213 80.3083 74.101 80.5008C73.9808 80.6933 73.7883 80.8376 73.5718 80.9579C73.3552 81.0782 73.0665 81.1263 72.7778 81.1263C72.4169 81.1263 72.1042 81.0782 71.8395 80.9579C71.5749 80.8376 71.3824 80.6933 71.2621 80.4767C71.1659 80.2361 71.0937 79.9956 71.0696 79.7309Z" fill="white"/>
<path d="M76.2904 81.0302L77.8542 76.9402H78.4316L80.1157 81.0302H79.4902L79.009 79.7791H77.3009L76.8438 81.0302H76.2904ZM77.4693 79.3701H78.8647L78.4316 78.2394C78.3113 77.9025 78.2151 77.6138 78.1429 77.3973C78.0948 77.662 78.0226 77.9266 77.9264 78.1672L77.4693 79.3701Z" fill="white"/>
<path d="M82.281 81.0302V76.9402H82.8344V80.549H84.8553V81.0302H82.281Z" fill="white"/>
<path d="M86.78 79.0571C86.78 78.3835 86.9725 77.8542 87.3334 77.4693C87.6943 77.0843 88.1754 76.8918 88.7528 76.8918C89.1378 76.8918 89.4746 76.9881 89.7633 77.1565C90.0761 77.349 90.2926 77.5895 90.461 77.9023C90.6294 78.2151 90.7016 78.6 90.7016 79.009C90.7016 79.418 90.6294 79.803 90.461 80.1157C90.2926 80.4285 90.052 80.6931 89.7393 80.8615C89.4265 81.03 89.0897 81.1021 88.7528 81.1021C88.3679 81.1021 88.0311 81.0059 87.7183 80.8134C87.4056 80.621 87.189 80.3804 87.0206 80.0435C86.8522 79.7548 86.78 79.418 86.78 79.0571ZM87.3334 79.0571C87.3334 79.5383 87.4777 79.9473 87.7424 80.212C88.007 80.5007 88.3438 80.645 88.7288 80.645C89.1378 80.645 89.4746 80.5007 89.7393 80.212C90.0039 79.9232 90.1242 79.5142 90.1242 78.985C90.1242 78.6481 90.0761 78.3594 89.9558 78.1188C89.8355 77.8783 89.6671 77.6858 89.4505 77.5414C89.234 77.3971 88.9934 77.3249 88.7288 77.3249C88.3438 77.3249 88.007 77.4452 87.7424 77.7098C87.4777 77.9985 87.3334 78.4316 87.3334 79.0571Z" fill="white"/>
<path d="M93.0353 81.0302V76.9402H93.5887L95.7299 80.1641V76.9402H96.2592V81.0302H95.7058L93.5646 77.8063V81.0302H93.0353Z" fill="white"/>
</svg>
