<svg width="20" height="20" viewBox="0 0 20 20" fill="none" xmlns="http://www.w3.org/2000/svg">
<path d="M5.59844 0.216675C2.51094 0.216675 0 2.73074 0 5.81824V13.8182C0 16.9057 2.51406 19.4167 5.60156 19.4167H13.6016C16.6891 19.4167 19.2 16.9026 19.2 13.8151V5.81511C19.2 2.72761 16.6859 0.216675 13.5984 0.216675H5.59844ZM15.2 3.41667C15.6422 3.41667 16 3.77449 16 4.21667C16 4.65886 15.6422 5.01667 15.2 5.01667C14.7578 5.01667 14.4 4.65886 14.4 4.21667C14.4 3.77449 14.7578 3.41667 15.2 3.41667ZM9.6 5.01667C12.2469 5.01667 14.4 7.1698 14.4 9.81667C14.4 12.4636 12.2469 14.6167 9.6 14.6167C6.95312 14.6167 4.8 12.4636 4.8 9.81667C4.8 7.1698 6.95312 5.01667 9.6 5.01667ZM9.6 6.61667C7.83281 6.61667 6.4 8.04949 6.4 9.81667C6.4 11.5839 7.83281 13.0167 9.6 13.0167C11.3672 13.0167 12.8 11.5839 12.8 9.81667C12.8 8.04949 11.3672 6.61667 9.6 6.61667Z" fill="#42382E"/>
</svg>
