<svg width="20" height="20" viewBox="0 0 20 20" fill="none" xmlns="http://www.w3.org/2000/svg">
<path d="M5.59844 0.216553C2.51094 0.216553 0 2.73062 0 5.81812V13.8181C0 16.9056 2.51406 19.4166 5.60156 19.4166H13.6016C16.6891 19.4166 19.2 16.9025 19.2 13.815V5.81499C19.2 2.72749 16.6859 0.216553 13.5984 0.216553H5.59844ZM15.2 3.41655C15.6422 3.41655 16 3.77437 16 4.21655C16 4.65874 15.6422 5.01655 15.2 5.01655C14.7578 5.01655 14.4 4.65874 14.4 4.21655C14.4 3.77437 14.7578 3.41655 15.2 3.41655ZM9.6 5.01655C12.2469 5.01655 14.4 7.16968 14.4 9.81655C14.4 12.4634 12.2469 14.6166 9.6 14.6166C6.95312 14.6166 4.8 12.4634 4.8 9.81655C4.8 7.16968 6.95312 5.01655 9.6 5.01655ZM9.6 6.61655C7.83281 6.61655 6.4 8.04937 6.4 9.81655C6.4 11.5837 7.83281 13.0166 9.6 13.0166C11.3672 13.0166 12.8 11.5837 12.8 9.81655C12.8 8.04937 11.3672 6.61655 9.6 6.61655Z" fill="white"/>
</svg>
