<svg width="205" height="127" viewBox="0 0 205 127" fill="none" xmlns="http://www.w3.org/2000/svg">
<path d="M108.813 69.6828C108.813 69.6828 105.841 73.3325 102.455 73.3325C99.0684 73.3325 96.096 69.6828 96.096 69.6828C96.096 69.6828 99.0684 66.0331 102.455 66.0331C105.803 66.0331 108.813 69.6828 108.813 69.6828ZM114.909 63.324C111.259 63.324 108.813 66.8608 108.813 66.8608C108.813 66.8608 112.012 70.8868 115.059 70.8868C118.709 70.8868 121.155 67.6886 121.155 67.6886C121.155 67.6886 118.559 63.324 114.909 63.324ZM124.541 57.2287C121.117 58.4327 119.913 62.5715 119.913 62.5715C119.913 62.5715 124.24 65.3558 127.137 64.3399C130.561 63.1359 131.878 59.3357 131.878 59.3357C131.878 59.3357 127.965 56.0247 124.541 57.2287ZM131.201 48.2361C128.379 50.5313 128.717 54.8583 128.717 54.8583C128.717 54.8583 133.722 55.9494 136.13 54.0305C138.952 51.7353 138.839 47.7094 138.839 47.7094C138.839 47.7094 134.023 45.941 131.201 48.2361ZM134.625 37.4376C132.743 40.5605 134.512 44.5112 134.512 44.5112C134.512 44.5112 139.629 43.8716 141.209 41.2378C143.09 38.1148 141.623 34.3523 141.623 34.3523C141.623 34.3523 136.506 34.3146 134.625 37.4376ZM133.872 26.2627C133.157 29.8372 136.167 32.9601 136.167 32.9601C136.167 32.9601 140.758 30.6273 141.36 27.6173C142.075 24.0428 139.441 20.9951 139.441 20.9951C139.441 20.9951 134.587 22.6883 133.872 26.2627ZM129.583 16.0662C130.222 19.6406 134.136 21.4843 134.136 21.4843C134.136 21.4843 137.56 17.6464 137.033 14.6364C136.393 11.062 132.856 9.18067 132.856 9.18067C132.856 9.18067 128.943 12.4541 129.583 16.0662ZM121.757 7.60039C123.412 10.8362 127.702 11.4006 127.702 11.4006C127.702 11.4006 129.846 6.735 128.454 3.98832C126.799 0.752514 122.848 0 122.848 0C122.848 0 120.101 4.36458 121.757 7.60039ZM83.7171 67.7262C83.7171 67.7262 86.2004 70.9244 89.8125 70.9244C92.8978 70.9244 96.0584 66.8985 96.0584 66.8985C96.0584 66.8985 93.5751 63.3617 89.963 63.3617C86.3509 63.324 83.7171 67.7262 83.7171 67.7262ZM72.9938 59.3357C72.9938 59.3357 74.2731 63.1359 77.7347 64.3399C80.6318 65.3558 84.9588 62.5715 84.9588 62.5715C84.9588 62.5715 83.7924 58.3951 80.3308 57.2287C76.8693 56.0623 72.9938 59.3357 72.9938 59.3357ZM66.0707 47.7094C66.0707 47.7094 65.9578 51.7353 68.7797 54.0305C71.1502 55.987 76.192 54.8583 76.192 54.8583C76.192 54.8583 76.5306 50.5313 73.7087 48.2361C70.8868 45.941 66.0707 47.7094 66.0707 47.7094ZM63.2488 34.3523C63.2488 34.3523 61.7814 38.1148 63.6627 41.2378C65.2429 43.8716 70.36 44.5112 70.36 44.5112C70.36 44.5112 72.1284 40.5605 70.2471 37.4376C68.3659 34.3146 63.2488 34.3523 63.2488 34.3523ZM65.4687 20.9951C65.4687 20.9951 62.8349 24.0428 63.5498 27.6173C64.1518 30.6273 68.7421 32.9601 68.7421 32.9601C68.7421 32.9601 71.7522 29.8372 71.0373 26.2627C70.2848 22.6883 65.4687 20.9951 65.4687 20.9951ZM72.0532 9.14304C72.0532 9.14304 68.4787 11.0243 67.8767 14.5988C67.35 17.6088 70.7739 21.4466 70.7739 21.4466C70.7739 21.4466 74.687 19.6406 75.3266 16.0285C75.9286 12.4541 72.0532 9.14304 72.0532 9.14304ZM82.0616 0.0376257C82.0616 0.0376257 78.1109 0.790139 76.4554 4.02595C75.0632 6.77262 77.2079 11.4382 77.2079 11.4382C77.2079 11.4382 81.4972 10.8738 83.1528 7.63801C84.8083 4.36458 82.0616 0.0376257 82.0616 0.0376257Z" fill="#0C0E0F"/>
<path d="M114.156 43.232C112.877 43.232 111.711 43.6083 110.732 44.2855L105.465 38.3783L119.913 17.7218C120.515 16.8564 119.951 15.3514 119.951 15.3514L102.455 34.992L84.9588 15.3514C84.9588 15.3514 84.3944 16.8564 84.9964 17.7218L99.4447 38.3783L94.1771 44.2855C93.1988 43.6083 92.0324 43.232 90.7532 43.232C87.4045 43.232 84.6954 45.9411 84.6954 49.2897C84.6954 52.6384 87.4045 55.3475 90.7532 55.3475C93.387 55.3475 95.6445 53.6543 96.4346 51.3215L102.417 42.7429L108.4 51.3215C109.227 53.6919 111.447 55.3475 114.081 55.3475C117.43 55.3475 120.139 52.6384 120.139 49.2897C120.176 45.9411 117.467 43.232 114.156 43.232ZM90.5274 52.5632C88.6085 52.5632 87.0658 51.0205 87.0658 49.1016C87.0658 47.1827 88.6085 45.6401 90.5274 45.6401C92.4463 45.6401 93.989 47.1827 93.989 49.1016C93.989 51.0205 92.4463 52.5632 90.5274 52.5632ZM102.455 38.7169C101.966 38.7169 101.589 38.3407 101.589 37.8515C101.589 37.3624 101.966 36.9862 102.455 36.9862C102.944 36.9862 103.32 37.3624 103.32 37.8515C103.32 38.3407 102.906 38.7169 102.455 38.7169ZM113.893 52.5632C111.974 52.5632 110.431 51.0205 110.431 49.1016C110.431 47.1827 111.974 45.6401 113.893 45.6401C115.812 45.6401 117.355 47.1827 117.355 49.1016C117.355 51.0205 115.812 52.5632 113.893 52.5632Z" fill="#0C0E0F"/>
<path d="M6.84788 102.153V106.593C6.84788 107.459 7.07363 108.061 7.48751 108.399C7.86377 108.663 8.5034 108.813 9.40642 108.813H10.3094V109.98H0.150503V108.813H0.602011C1.39215 108.813 1.91891 108.738 2.18229 108.55C2.52092 108.324 2.70905 107.835 2.70905 107.12V94.3274C2.70905 93.462 2.44567 92.8976 1.91891 92.7471C1.6179 92.6342 1.20402 92.5966 0.639637 92.5966H0V91.4302C1.09114 91.3549 2.67142 91.242 4.81609 91.0915C7.07363 90.9787 8.65391 90.941 9.55692 90.941C12.266 90.941 14.3354 91.5054 15.8028 92.6718C17.1197 93.7253 17.7969 95.1175 17.7969 96.773C17.7969 99.4445 16.3295 101.175 13.3947 102.041C12.4541 102.304 11.4006 102.454 10.2718 102.454C9.14304 102.454 8.01427 102.342 6.84788 102.153ZM6.84788 92.4837V100.949C7.44989 101.1 8.2024 101.175 8.99254 101.175C10.8738 101.175 12.1155 100.498 12.8304 99.1058C13.169 98.4286 13.3195 97.6008 13.3195 96.6601C13.3195 95.3056 12.9432 94.2145 12.1531 93.462C11.4006 92.7094 10.3094 92.2956 8.95491 92.2956C8.27765 92.2579 7.56276 92.3332 6.84788 92.4837Z" fill="#0C0E0F"/>
<path d="M20.205 92.5967V91.4303H29.6867V92.5967H29.1975C27.6925 92.5967 26.94 93.3492 26.94 94.8542V106.669C26.94 107.459 27.1281 108.023 27.5044 108.362C27.8806 108.7 28.4826 108.851 29.2728 108.851H29.7243V110.017H20.2426V108.851H20.6565C22.0863 108.851 22.8388 108.174 22.8388 106.782V94.8542C22.8388 94.0641 22.6883 93.4621 22.3497 93.1235C22.011 92.7848 21.4466 92.5967 20.6565 92.5967H20.205Z" fill="#0C0E0F"/>
<path d="M44.8875 92.9729V106.556C44.8875 107.421 45.1132 108.023 45.5271 108.362C45.9033 108.625 46.543 108.776 47.4836 108.776H48.1985V109.942H37.4752V108.776H38.4911C40.0337 108.776 40.7863 108.023 40.7863 106.556V92.9729H37.2494C36.5346 92.9729 36.0454 93.0105 35.7068 93.1234C35.2177 93.2739 34.8414 93.6125 34.6156 94.1017C34.4275 94.5532 34.2018 95.3433 34.0136 96.4721H32.8096L33.3364 90.9035H34.3146C34.578 91.1669 34.7661 91.2797 34.879 91.3174C35.0671 91.3926 35.3682 91.3926 35.7444 91.3926H49.9293C50.4937 91.3926 50.9828 91.2045 51.3591 90.8658H52.3373L52.8641 96.4344H51.6601C51.5096 95.5314 51.3591 94.8918 51.2838 94.5908C51.0204 93.8383 50.6818 93.3491 50.2303 93.161C49.854 93.0105 49.252 92.9353 48.4619 92.9353H44.8875V92.9729Z" fill="#0C0E0F"/>
<path d="M71.4888 95.7573C71.3759 94.8543 71.2254 94.2146 71.0373 93.876C70.7363 93.3492 70.2095 93.0482 69.457 93.0482H62.9102V99.7456H67.7262C68.5164 99.7456 69.1184 99.5951 69.457 99.2565C69.7957 98.9178 69.9838 98.3911 69.9838 97.6009H71.1878V103.546H69.9838C69.9838 102.492 69.6452 101.815 69.0055 101.589C68.6293 101.439 68.0273 101.401 67.2747 101.401H62.9102V106.782C62.9102 107.308 62.9478 107.685 63.0607 107.873C63.2112 108.174 63.5122 108.324 64.0013 108.324H68.9679C70.059 108.324 70.8492 108.099 71.3383 107.609C71.7898 107.195 72.1284 106.405 72.3918 105.314H73.5206L73.182 110.017H55.2345V108.851H56.4385C57.9812 108.851 58.7713 108.136 58.7713 106.706V94.8166C58.7713 93.9512 58.5456 93.3492 58.1317 93.0106C57.7554 92.7472 57.1158 92.6343 56.1752 92.6343H55.8742V91.468H72.279L72.58 95.7949H71.4888V95.7573Z" fill="#0C0E0F"/>
<path d="M83.83 102.078V106.631C83.83 108.061 84.6202 108.813 86.2004 108.813H87.1035V109.98H76.6811V108.813H77.1703C78.0733 108.813 78.7129 108.663 79.0892 108.399C79.5407 108.061 79.7664 107.496 79.7664 106.631V94.8541C79.7664 93.9887 79.5783 93.3867 79.2397 93.0857C78.9011 92.7847 78.2614 92.5965 77.396 92.5965H76.7564V91.4301L80.5942 91.2044C82.626 91.0539 84.2439 90.9786 85.4855 90.9786C87.7055 90.9786 89.4362 91.1291 90.7155 91.4301C91.9948 91.7312 92.9731 92.2579 93.7256 93.0481C94.6662 93.9887 95.1553 95.1175 95.1553 96.4344C95.1553 98.8424 93.6879 100.423 90.7531 101.25C91.4304 101.815 92.2582 102.718 93.1612 103.959C93.7256 104.75 94.6286 105.878 95.8702 107.346C96.4722 107.948 97.0743 108.362 97.6763 108.625C98.203 108.851 98.9179 109.001 99.8209 109.114V110.281C99.3694 110.318 98.7674 110.318 97.9773 110.318C95.6445 110.318 93.989 110.055 92.9354 109.528C92.371 109.265 91.8443 108.888 91.3552 108.362C90.8284 107.835 90.1888 107.082 89.5115 106.104L87.7807 103.734C87.3292 103.169 86.8401 102.605 86.2381 102.078H83.83ZM83.83 92.2579V100.837H84.9964C86.7648 100.837 88.0817 100.573 88.9847 100.009C90.1135 99.3315 90.6779 98.1651 90.6779 96.5472C90.6779 93.6877 88.9095 92.2579 85.3727 92.2579H83.83Z" fill="#0C0E0F"/>
<path d="M103.395 109.904L102.643 104.486H103.809C104.788 107.459 106.481 108.964 108.889 108.964C110.243 108.964 111.259 108.475 111.899 107.534C112.2 107.082 112.35 106.593 112.35 106.067C112.35 105.051 111.786 104.11 110.695 103.282C110.281 102.981 109.303 102.417 107.685 101.551C106.104 100.724 104.976 100.009 104.336 99.3692C103.32 98.3909 102.793 97.2245 102.793 95.8323C102.793 94.7412 103.132 93.7629 103.809 92.9728C104.449 92.2203 105.314 91.6559 106.405 91.3173C107.158 91.0915 107.948 90.9786 108.851 90.9786C109.829 90.9786 110.695 91.0915 111.485 91.2796C112.689 91.6183 113.291 91.7688 113.366 91.7688C113.592 91.7688 113.818 91.6559 114.006 91.4301H114.645L115.21 96.2462H114.006C113.705 95.0798 113.103 94.1392 112.275 93.3867C111.372 92.6342 110.356 92.2203 109.152 92.2203C108.437 92.2203 107.798 92.3708 107.233 92.7094C106.556 93.0857 106.217 93.6124 106.217 94.2897C106.217 95.1551 106.744 95.9452 107.835 96.6601C108.738 97.1492 109.641 97.6384 110.544 98.1275C112.275 99.1058 113.592 100.009 114.495 100.874C115.624 102.003 116.188 103.32 116.188 104.825C116.188 106.97 115.135 108.587 113.028 109.641C112.049 110.13 110.958 110.393 109.829 110.393C109.114 110.393 108.174 110.243 106.932 109.904C105.691 109.566 104.976 109.415 104.712 109.415C104.449 109.415 104.223 109.566 104.073 109.904H103.395Z" fill="#0C0E0F"/>
<path d="M131.389 92.9729V106.556C131.389 107.421 131.615 108.023 132.029 108.362C132.405 108.625 133.044 108.776 133.985 108.776H134.7V109.942H123.977V108.776H124.993C126.535 108.776 127.288 108.023 127.288 106.556V92.9729H123.751C123.036 92.9729 122.547 93.0105 122.208 93.1234C121.719 93.2739 121.343 93.6125 121.117 94.1017C120.929 94.5532 120.703 95.3433 120.515 96.4721H119.311L119.838 90.9035H120.816C121.079 91.1669 121.268 91.2797 121.38 91.3174C121.569 91.3926 121.87 91.3926 122.246 91.3926H136.431C136.995 91.3926 137.484 91.2045 137.861 90.8658H138.839L139.366 96.4344H138.162C138.011 95.5314 137.861 94.8918 137.785 94.5908C137.522 93.8383 137.183 93.3491 136.732 93.161C136.356 93.0105 135.753 92.9353 134.963 92.9353H131.389V92.9729Z" fill="#0C0E0F"/>
<path d="M155.695 102.492V106.593C155.695 107.609 156.034 108.249 156.673 108.55C157.05 108.7 157.576 108.813 158.291 108.813H158.743V109.98H148.584V108.813H149.336C150.841 108.813 151.594 108.098 151.594 106.669V102.53L145.198 93.9888C144.671 93.2739 144.144 92.8224 143.655 92.7095C143.354 92.6342 142.978 92.5966 142.488 92.5966H142.263V91.4302H151.97V92.5966H151.594C150.766 92.5966 150.277 92.7471 150.051 93.0105C149.863 93.3115 149.901 93.6501 150.239 94.1016L155.018 100.385L158.479 94.967C158.856 94.4026 159.044 93.9135 159.044 93.5372C159.044 92.8976 158.517 92.559 157.426 92.559H157.05V91.3926H164.086V92.559C163.22 92.6342 162.543 92.7847 162.129 93.0857C161.715 93.3491 161.264 93.8383 160.775 94.6284L155.695 102.492Z" fill="#0C0E0F"/>
<path d="M185.118 104.787L182.936 109.98H166.983V108.813H167.472C168.676 108.813 169.428 108.512 169.729 107.91C169.88 107.609 169.955 107.195 169.955 106.706V94.779C169.955 93.3492 169.165 92.6343 167.622 92.6343H167.058V91.468H177.142V92.6343H176.276C174.809 92.6343 174.056 93.3116 174.056 94.7038V106.97C174.056 107.496 174.169 107.873 174.395 108.061C174.621 108.249 174.997 108.324 175.561 108.324H179.362C180.453 108.324 181.393 107.91 182.108 107.083C182.447 106.706 183.049 105.954 183.952 104.787H185.118Z" fill="#0C0E0F"/>
<path d="M202.84 95.7573C202.727 94.8543 202.577 94.2146 202.389 93.876C202.088 93.3492 201.561 93.0482 200.808 93.0482H194.261V99.7456H199.078C199.868 99.7456 200.47 99.5951 200.808 99.2565C201.147 98.9178 201.335 98.3911 201.335 97.6009H202.539V103.546H201.335C201.335 102.492 200.996 101.815 200.357 101.589C199.981 101.439 199.379 101.401 198.626 101.401H194.261V106.782C194.261 107.308 194.299 107.685 194.412 107.873C194.562 108.174 194.863 108.324 195.353 108.324H200.319C201.41 108.324 202.2 108.099 202.69 107.609C203.141 107.195 203.48 106.405 203.743 105.314H204.872L204.533 110.017H186.586V108.851H187.79C189.332 108.851 190.123 108.136 190.123 106.706V94.8166C190.123 93.9512 189.897 93.3492 189.483 93.0106C189.107 92.7472 188.467 92.6343 187.526 92.6343H187.225V91.468H203.63L203.931 95.7949H202.84V95.7573Z" fill="#0C0E0F"/>
<path d="M54.3315 126.724V120.327H56.7396C57.2287 120.327 57.605 120.403 57.906 120.515C58.207 120.628 58.4327 120.854 58.5832 121.117C58.7337 121.381 58.8466 121.682 58.8466 121.945C58.8466 122.209 58.7714 122.472 58.6209 122.735C58.4704 122.961 58.2446 123.187 57.9436 123.337C58.3199 123.45 58.6209 123.638 58.8466 123.902C59.0724 124.165 59.1476 124.504 59.1476 124.88C59.1476 125.181 59.0724 125.444 58.9595 125.708C58.8466 125.971 58.6585 126.159 58.508 126.31C58.3199 126.46 58.0941 126.573 57.7931 126.611C57.5297 126.686 57.1535 126.724 56.7772 126.724H54.3315ZM55.1969 123.036H56.5891C56.9653 123.036 57.2287 122.999 57.3792 122.961C57.605 122.886 57.7555 122.773 57.8684 122.66C57.9812 122.547 58.0189 122.321 58.0189 122.096C58.0189 121.87 57.9812 121.682 57.8684 121.531C57.7555 121.381 57.605 121.268 57.4169 121.193C57.2287 121.117 56.8901 121.117 56.4386 121.117H55.1593V123.036H55.1969ZM55.1969 125.971H56.7772C57.0406 125.971 57.2287 125.971 57.3416 125.934C57.5297 125.896 57.7179 125.858 57.8307 125.745C57.9436 125.67 58.0565 125.557 58.1694 125.407C58.2446 125.256 58.2822 125.068 58.2822 124.88C58.2822 124.654 58.207 124.428 58.0941 124.24C57.9812 124.052 57.7931 123.939 57.5674 123.864C57.3416 123.789 57.0406 123.751 56.6267 123.751H55.1593V125.971H55.1969Z" fill="#0C0E0F"/>
<path d="M62.9854 126.724V120.327H67.6134V121.08H63.8508V123.036H67.3876V123.789H63.8508V125.971H67.7639V126.724H62.9854Z" fill="#0C0E0F"/>
<path d="M71.075 126.724L73.5206 120.327H74.4236L77.0574 126.724H76.0792L75.3267 124.767H72.6552L71.9403 126.724H71.075ZM72.9186 124.127H75.1009L74.4236 122.359C74.2355 121.832 74.085 121.381 73.9721 121.042C73.8969 121.456 73.784 121.87 73.6335 122.246L72.9186 124.127Z" fill="#0C0E0F"/>
<path d="M84.3568 120.327H85.2222V124.015C85.2222 124.654 85.1469 125.181 84.9964 125.557C84.8459 125.934 84.5826 126.235 84.2063 126.498C83.83 126.724 83.3409 126.837 82.7013 126.837C82.0993 126.837 81.6101 126.724 81.2339 126.536C80.8576 126.347 80.5942 126.046 80.4061 125.632C80.2556 125.256 80.1804 124.692 80.1804 124.015V120.327H81.0457V124.015C81.0457 124.579 81.0834 124.993 81.1963 125.256C81.3091 125.52 81.4596 125.708 81.723 125.858C81.9864 126.009 82.2874 126.084 82.6637 126.084C83.3033 126.084 83.7172 125.934 83.9805 125.67C84.2439 125.369 84.3944 124.842 84.3944 124.052L84.3568 120.327Z" fill="#0C0E0F"/>
<path d="M90.8284 126.724V121.08H88.7214V120.327H93.8009V121.08H91.6938V126.724H90.8284Z" fill="#0C0E0F"/>
<path d="M99.4447 126.724V124.015L96.9614 120.327H97.9773L99.2566 122.246C99.4824 122.622 99.7081 122.961 99.8962 123.337C100.084 122.999 100.31 122.622 100.611 122.209L101.853 120.327H102.831L100.272 124.015V126.724H99.4447Z" fill="#0C0E0F"/>
<path d="M111.146 124.692L111.936 124.616C111.974 124.955 112.049 125.181 112.2 125.407C112.35 125.595 112.538 125.783 112.839 125.896C113.14 126.009 113.441 126.084 113.818 126.084C114.156 126.084 114.42 126.046 114.683 125.933C114.947 125.82 115.097 125.708 115.248 125.557C115.36 125.407 115.436 125.218 115.436 124.993C115.436 124.805 115.36 124.616 115.248 124.466C115.135 124.315 114.947 124.203 114.683 124.09C114.495 124.014 114.119 123.902 113.554 123.789C112.99 123.676 112.538 123.525 112.313 123.375C112.012 123.224 111.786 122.999 111.635 122.773C111.485 122.547 111.41 122.284 111.41 121.983C111.41 121.644 111.485 121.343 111.673 121.08C111.861 120.816 112.125 120.59 112.463 120.44C112.802 120.289 113.216 120.214 113.63 120.214C114.119 120.214 114.533 120.289 114.871 120.44C115.248 120.59 115.511 120.816 115.699 121.117C115.887 121.418 116 121.757 116 122.133L115.172 122.208C115.135 121.795 114.984 121.494 114.721 121.305C114.457 121.117 114.081 121.004 113.592 121.004C113.065 121.004 112.689 121.117 112.463 121.268C112.237 121.456 112.125 121.682 112.125 121.945C112.125 122.171 112.2 122.359 112.388 122.509C112.538 122.66 112.99 122.81 113.667 122.961C114.344 123.111 114.834 123.262 115.097 123.375C115.473 123.563 115.737 123.751 115.925 124.014C116.113 124.278 116.188 124.579 116.188 124.917C116.188 125.256 116.075 125.595 115.887 125.896C115.699 126.197 115.398 126.422 115.059 126.611C114.721 126.799 114.269 126.874 113.818 126.874C113.253 126.874 112.764 126.799 112.35 126.611C111.936 126.422 111.635 126.197 111.447 125.858C111.297 125.482 111.184 125.106 111.146 124.692Z" fill="#0C0E0F"/>
<path d="M119.311 126.724L121.757 120.327H122.66L125.294 126.724H124.315L123.563 124.767H120.891L120.176 126.724H119.311ZM121.155 124.127H123.337L122.66 122.359C122.472 121.832 122.321 121.381 122.208 121.042C122.133 121.456 122.02 121.87 121.87 122.246L121.155 124.127Z" fill="#0C0E0F"/>
<path d="M128.68 126.724V120.327H129.545V125.971H132.706V126.724H128.68Z" fill="#0C0E0F"/>
<path d="M135.716 123.638C135.716 122.585 136.017 121.757 136.581 121.155C137.146 120.553 137.898 120.252 138.801 120.252C139.403 120.252 139.93 120.402 140.381 120.666C140.871 120.967 141.209 121.343 141.473 121.832C141.736 122.321 141.849 122.923 141.849 123.563C141.849 124.203 141.736 124.805 141.473 125.294C141.209 125.783 140.833 126.197 140.344 126.46C139.855 126.723 139.328 126.836 138.801 126.836C138.199 126.836 137.672 126.686 137.183 126.385C136.694 126.084 136.356 125.708 136.092 125.181C135.829 124.729 135.716 124.203 135.716 123.638ZM136.581 123.638C136.581 124.391 136.807 125.03 137.221 125.444C137.635 125.896 138.162 126.121 138.764 126.121C139.403 126.121 139.93 125.896 140.344 125.444C140.758 124.993 140.946 124.353 140.946 123.525C140.946 122.998 140.871 122.547 140.682 122.171C140.494 121.794 140.231 121.493 139.892 121.268C139.554 121.042 139.177 120.929 138.764 120.929C138.162 120.929 137.635 121.117 137.221 121.531C136.807 121.983 136.581 122.66 136.581 123.638Z" fill="#0C0E0F"/>
<path d="M145.499 126.724V120.327H146.364L149.713 125.369V120.327H150.54V126.724H149.675L146.326 121.682V126.724H145.499Z" fill="#0C0E0F"/>
</svg>
