<svg width="102" height="62" viewBox="0 0 102 62" fill="none" xmlns="http://www.w3.org/2000/svg">
<path d="M6.4478 42.9783L0 46.4705V42.8592L6.4478 39.0892L11.4229 41.8671V14.4848L6.4478 11.7466V7.85753L19.3434 14.9214V15.0007V18.8104V46.2324L26.1892 50.0421L32.637 46.3515V34.7239L23.5623 29.7634V25.8743L40.5574 35.1208V45.9943L26.1892 53.9709L6.4478 42.9783ZM19.3434 7.06384L6.4478 0V3.88908L19.3434 10.9529V7.06384ZM26.229 57.6219L6.4876 46.6293L0.0398012 50.3993V54.0503L6.4876 50.5183L26.229 61.511L40.5972 53.5344V49.3675L26.229 57.6219Z" fill="white"/>
<path d="M55.683 44.9444C55.1278 44.9444 54.5725 44.9444 54.057 44.9047C53.5017 44.865 52.9465 44.7856 52.3516 44.6665V34.9009C52.8275 34.8215 53.3034 34.7421 53.8587 34.7024C54.4139 34.6627 54.9295 34.623 55.4054 34.623C56.04 34.623 56.6349 34.6627 57.1505 34.7421C57.7057 34.8215 58.142 34.9803 58.5386 35.2185C58.9352 35.4567 59.2128 35.7346 59.4507 36.0919C59.649 36.4491 59.768 36.8858 59.768 37.4416C59.768 38.2355 59.3714 38.8707 58.6179 39.347C59.2524 39.5852 59.6887 39.9028 59.9267 40.3395C60.1646 40.7364 60.2836 41.2128 60.2836 41.7289C60.2836 42.8007 59.887 43.555 59.1335 44.1107C58.3403 44.6665 57.1901 44.9444 55.683 44.9444ZM54.5329 38.7119H55.6434C56.3572 38.7119 56.8332 38.6325 57.1505 38.434C57.4677 38.2752 57.5867 37.9576 57.5867 37.5607C57.5867 37.1637 57.4281 36.8858 57.1108 36.6873C56.7935 36.5285 56.3572 36.4491 55.7623 36.4491C55.564 36.4491 55.3657 36.4491 55.1278 36.4491C54.8898 36.4491 54.6915 36.4491 54.5329 36.4888V38.7119ZM54.5329 40.4189V42.9992C54.6915 42.9992 54.8898 43.0389 55.0881 43.0389C55.2864 43.0389 55.4847 43.0389 55.7227 43.0389C56.3969 43.0389 56.9522 42.9595 57.3488 42.761C57.7454 42.5625 57.9833 42.2053 57.9833 41.6892C57.9833 41.2128 57.8247 40.8952 57.4677 40.6968C57.1108 40.4983 56.6349 40.4189 55.9606 40.4189H54.5329Z" fill="white"/>
<path d="M69.326 40.9737C69.326 41.5691 69.2466 42.1249 69.0483 42.6012C68.8897 43.1173 68.6121 43.5143 68.2948 43.8716C67.9775 44.2288 67.5809 44.5067 67.105 44.7052C66.6291 44.9037 66.1135 44.9831 65.5582 44.9831C65.003 44.9831 64.4874 44.9037 64.0115 44.7052C63.5356 44.5067 63.1786 44.2288 62.8217 43.8716C62.5044 43.5143 62.2268 43.0776 62.0681 42.6012C61.9095 42.1249 61.7905 41.5691 61.7905 40.9737C61.7905 40.3782 61.8698 39.8224 62.0681 39.3461C62.2664 38.8697 62.5044 38.433 62.8614 38.0757C63.1786 37.7185 63.5752 37.4406 64.0512 37.2818C64.5271 37.0833 65.003 37.0039 65.5582 37.0039C66.1135 37.0039 66.6291 37.0833 67.0653 37.2818C67.5413 37.4803 67.8982 37.7582 68.2551 38.0757C68.5724 38.433 68.85 38.83 69.0087 39.3461C69.2466 39.8224 69.326 40.3782 69.326 40.9737ZM67.1447 40.9737C67.1447 40.2988 67.0257 39.7827 66.7481 39.3858C66.4704 38.9888 66.1135 38.83 65.5979 38.83C65.122 38.83 64.7254 39.0285 64.4478 39.3858C64.1701 39.7827 64.0512 40.2988 64.0512 40.9737C64.0512 41.6485 64.1701 42.1646 64.4478 42.5615C64.7254 42.9585 65.0823 43.157 65.5979 43.157C66.0738 43.157 66.4704 42.9585 66.7481 42.5615C66.986 42.1646 67.1447 41.6485 67.1447 40.9737Z" fill="white"/>
<path d="M75.7907 39.0688C75.5924 39.0291 75.3544 38.9894 75.1164 38.91C74.8388 38.8703 74.5612 38.8306 74.2836 38.8306C74.1646 38.8306 74.0059 38.8306 73.8076 38.8703C73.6093 38.91 73.4904 38.91 73.3714 38.9497V44.7852H71.2297V37.5603C71.6263 37.4412 72.0626 37.2824 72.5782 37.1633C73.0938 37.0442 73.6887 36.9648 74.3232 36.9648C74.4422 36.9648 74.5612 36.9648 74.7595 37.0045C74.9181 37.0045 75.0768 37.0442 75.2354 37.0442C75.3941 37.0839 75.5527 37.0839 75.7113 37.1236C75.87 37.1633 76.0286 37.203 76.1476 37.2427L75.7907 39.0688Z" fill="white"/>
<path d="M84.5953 40.9737C84.5953 41.5691 84.5159 42.1249 84.3176 42.6012C84.1193 43.0776 83.8814 43.5143 83.5641 43.8716C83.2468 44.2288 82.8502 44.5067 82.3743 44.7052C81.8984 44.9037 81.3828 44.9831 80.8275 44.9831C80.2723 44.9831 79.7567 44.9037 79.2808 44.7052C78.8049 44.5067 78.4479 44.2288 78.091 43.8716C77.734 43.5143 77.4961 43.0776 77.3374 42.6012C77.1788 42.1249 77.0598 41.5691 77.0598 40.9737C77.0598 40.3782 77.1391 39.8224 77.3374 39.3461C77.5357 38.8697 77.7737 38.433 78.1306 38.0757C78.4479 37.7185 78.8445 37.4406 79.3204 37.2818C79.7964 37.0833 80.2723 37.0039 80.8275 37.0039C81.3828 37.0039 81.8984 37.0833 82.3346 37.2818C82.8105 37.4803 83.1675 37.7582 83.5244 38.0757C83.8417 38.433 84.1193 38.83 84.278 39.3461C84.5159 39.8224 84.5953 40.3782 84.5953 40.9737ZM82.3743 40.9737C82.3743 40.2988 82.2553 39.7827 81.9777 39.3858C81.7001 38.9888 81.3431 38.83 80.8275 38.83C80.3516 38.83 79.955 39.0285 79.6774 39.3858C79.3998 39.7827 79.2808 40.2988 79.2808 40.9737C79.2808 41.6485 79.3998 42.1646 79.6774 42.5615C79.955 42.9585 80.312 43.157 80.8275 43.157C81.3035 43.157 81.7001 42.9585 81.9777 42.5615C82.2553 42.1646 82.3743 41.6485 82.3743 40.9737Z" fill="white"/>
<path d="M93.2016 44.547C93.0033 44.5867 92.805 44.6661 92.5274 44.7057C92.2894 44.7454 92.0118 44.7851 91.7342 44.8248C91.4565 44.8645 91.1789 44.9042 90.9013 44.9042C90.6237 44.9439 90.3461 44.9439 90.0684 44.9439C89.4339 44.9439 88.8786 44.8645 88.4027 44.6661C87.9268 44.4676 87.4905 44.2294 87.1732 43.8721C86.8163 43.5148 86.5783 43.1179 86.38 42.6415C86.2214 42.1651 86.1024 41.6094 86.1024 41.0139C86.1024 40.3787 86.1817 39.823 86.3404 39.3466C86.499 38.8305 86.6973 38.4336 87.0146 38.0763C87.2922 37.719 87.6492 37.4808 88.0854 37.2823C88.5217 37.0839 88.9976 37.0045 89.5132 37.0045C89.8305 37.0045 90.0684 37.0442 90.3064 37.0839C90.5444 37.1235 90.7823 37.2426 91.0203 37.322V33.8684L93.2016 33.5508V44.547ZM88.3234 40.9345C88.3234 41.6094 88.482 42.1254 88.7597 42.5621C89.0769 42.9591 89.5132 43.1576 90.1081 43.1576C90.3064 43.1576 90.465 43.1576 90.6633 43.1179C90.822 43.1179 90.9806 43.0782 91.0599 43.0782V39.1481C90.941 39.0687 90.7427 38.9893 90.5444 38.9496C90.3461 38.9099 90.1081 38.8702 89.8701 38.8702C88.839 38.8305 88.3234 39.5451 88.3234 40.9345Z" fill="white"/>
<path d="M98.1988 36.9648C98.8334 36.9648 99.349 37.0442 99.7852 37.1633C100.221 37.3221 100.539 37.5206 100.816 37.7985C101.054 38.0764 101.253 38.394 101.372 38.7909C101.491 39.1879 101.53 39.6246 101.53 40.0612V44.5471C101.213 44.6264 100.777 44.7058 100.261 44.7852C99.7059 44.8646 99.0317 44.9043 98.2781 44.9043C97.8022 44.9043 97.3263 44.8646 96.9297 44.7852C96.5331 44.7058 96.1761 44.5471 95.8985 44.3486C95.6209 44.1501 95.3829 43.8722 95.2243 43.5546C95.0657 43.237 94.9863 42.8401 94.9863 42.3637C94.9863 41.927 95.0656 41.53 95.2639 41.2522C95.4226 40.9346 95.7002 40.6964 95.9778 40.4979C96.2951 40.2994 96.6124 40.1803 97.009 40.1009C97.4056 40.0215 97.8022 39.9818 98.1988 39.9818C98.4764 39.9818 98.7144 39.9819 98.9523 40.0215C99.1507 40.0612 99.349 40.0612 99.4679 40.1009V39.9025C99.4679 39.5452 99.349 39.2276 99.1507 39.0291C98.9127 38.7909 98.5557 38.7115 98.0005 38.7115C97.6436 38.7115 97.2866 38.7512 96.9297 38.7909C96.5727 38.8306 96.2555 38.91 96.0175 39.0291L95.7399 37.2824C95.8589 37.2427 96.0175 37.203 96.2158 37.1633C96.4141 37.1236 96.6124 37.0839 96.8504 37.0442C97.0883 37.0045 97.2866 36.9648 97.5642 36.9648C97.7229 36.9648 97.9608 36.9648 98.1988 36.9648ZM98.3971 43.2767C98.5954 43.2767 98.7937 43.2767 98.992 43.2767C99.1903 43.2767 99.349 43.237 99.4679 43.237V41.6094C99.3886 41.6094 99.2696 41.5697 99.0713 41.5697C98.9127 41.5697 98.7541 41.53 98.5954 41.53C98.3971 41.53 98.1988 41.53 98.0402 41.5697C97.8419 41.6094 97.7229 41.6491 97.5642 41.6888C97.4453 41.7682 97.3263 41.8476 97.247 41.9667C97.1676 42.0858 97.128 42.2446 97.128 42.4034C97.128 42.7607 97.247 42.9592 97.4849 43.1179C97.6832 43.237 98.0005 43.2767 98.3971 43.2767Z" fill="white"/>
<path d="M56.9126 51.4936C56.9126 51.97 56.8333 52.4066 56.6746 52.7639C56.516 53.1212 56.3177 53.3991 56.0401 53.6373C55.7624 53.8755 55.4452 54.0342 55.0486 54.1533C54.652 54.2724 54.2554 54.3121 53.7794 54.3121C53.5415 54.3121 53.3035 54.3121 53.0259 54.2724C52.7483 54.2724 52.5103 54.2327 52.2723 54.1533V48.7545C52.5103 48.7148 52.7483 48.6751 53.0259 48.6354C53.3035 48.6354 53.5415 48.5957 53.7794 48.5957C54.2157 48.5957 54.652 48.6354 55.0486 48.7545C55.4452 48.8736 55.7624 49.0324 56.0401 49.2706C56.3177 49.5087 56.516 49.7866 56.6746 50.1439C56.8333 50.5806 56.9126 51.0172 56.9126 51.4936ZM53.8984 53.6373C54.652 53.6373 55.2072 53.4388 55.5641 53.0815C55.9211 52.6845 56.1194 52.1685 56.1194 51.4936C56.1194 50.8188 55.9211 50.3027 55.5641 49.9057C55.2072 49.5087 54.652 49.35 53.8984 49.35C53.6604 49.35 53.5018 49.35 53.3828 49.35C53.2638 49.35 53.1845 49.35 53.1449 49.35V53.5976C53.1845 53.5976 53.2638 53.5976 53.3828 53.5976C53.5018 53.6373 53.6604 53.6373 53.8984 53.6373Z" fill="white"/>
<path d="M58.9752 49.3502C58.8562 49.3502 58.7372 49.3105 58.6182 49.2311C58.5389 49.1517 58.4596 49.0326 58.4596 48.8738C58.4596 48.715 58.4993 48.5959 58.6182 48.5166C58.6976 48.4372 58.8165 48.3975 58.9752 48.3975C59.0942 48.3975 59.2131 48.4372 59.3321 48.5166C59.4114 48.5959 59.4908 48.715 59.4908 48.8738C59.4908 49.0326 59.4511 49.1517 59.3321 49.2311C59.2131 49.3105 59.0942 49.3502 58.9752 49.3502ZM59.3321 54.2727H58.5786V50.1044H59.3321V54.2727Z" fill="white"/>
<path d="M63.7741 53.836C63.6948 53.8757 63.5758 53.9154 63.4172 53.9948C63.2189 54.0742 63.0206 54.1139 62.7826 54.1139C62.5446 54.1139 62.3067 54.0742 62.0687 53.9948C61.8308 53.9154 61.6721 53.7963 61.4738 53.6375C61.3152 53.4787 61.1962 53.2405 61.0772 53.0024C60.9979 52.7642 60.9186 52.4466 60.9186 52.0893C60.9186 51.7717 60.9582 51.4939 61.0376 51.2557C61.1169 51.0175 61.2755 50.7793 61.4342 50.5808C61.5928 50.3823 61.8308 50.2632 62.0687 50.1441C62.3067 50.025 62.5843 49.9854 62.9016 49.9854C63.2585 49.9854 63.5361 50.025 63.8138 50.0647C64.0914 50.1044 64.2897 50.1441 64.4483 50.2235V53.9551C64.4483 54.5903 64.2897 55.0666 63.9327 55.3445C63.6155 55.6224 63.0999 55.7812 62.4257 55.7812C62.148 55.7812 61.9101 55.7415 61.6721 55.7018C61.4342 55.6621 61.2359 55.6224 61.0772 55.543L61.1962 54.9078C61.3548 54.9475 61.5135 55.0269 61.7514 55.0666C61.9497 55.1063 62.1877 55.146 62.4257 55.146C62.8619 55.146 63.1792 55.0666 63.3775 54.8681C63.5758 54.7093 63.6551 54.3918 63.6551 54.0345V53.836H63.7741ZM63.7741 50.7396C63.6948 50.6999 63.6155 50.6999 63.4568 50.6602C63.2982 50.6205 63.1792 50.6205 62.9412 50.6205C62.5446 50.6205 62.2274 50.7396 62.0291 51.0175C61.8308 51.2954 61.7118 51.6129 61.7118 52.0496C61.7118 52.2878 61.7514 52.4863 61.7911 52.6848C61.8704 52.8436 61.9497 53.0024 62.0291 53.1214C62.148 53.2405 62.267 53.3199 62.386 53.3596C62.505 53.3993 62.6636 53.439 62.8223 53.439C63.0206 53.439 63.2189 53.3993 63.3775 53.3596C63.5361 53.3199 63.6551 53.2405 63.7741 53.1611V50.7396Z" fill="white"/>
<path d="M66.7088 49.3502C66.5898 49.3502 66.4709 49.3105 66.3519 49.2311C66.2726 49.1517 66.1932 49.0326 66.1932 48.8738C66.1932 48.715 66.2329 48.5959 66.3519 48.5166C66.4312 48.4372 66.5502 48.3975 66.7088 48.3975C66.8278 48.3975 66.9468 48.4372 67.0658 48.5166C67.1451 48.5959 67.2244 48.715 67.2244 48.8738C67.2244 49.0326 67.1847 49.1517 67.0658 49.2311C66.9864 49.3105 66.8675 49.3502 66.7088 49.3502ZM67.1054 54.2727H66.3519V50.1044H67.1054V54.2727Z" fill="white"/>
<path d="M69.6434 50.1043H71.2299V50.7395H69.6434V52.6846C69.6434 52.8831 69.6434 53.0816 69.6831 53.2007C69.7228 53.3198 69.7624 53.4389 69.8417 53.5183C69.9211 53.5977 70.0004 53.6374 70.0797 53.6771C70.159 53.7168 70.278 53.7168 70.397 53.7168C70.6349 53.7168 70.7936 53.6771 70.9522 53.6374C71.0712 53.5977 71.1902 53.558 71.2299 53.5183L71.3885 54.1534C71.3092 54.1931 71.1902 54.2328 70.9919 54.3122C70.7936 54.3519 70.5953 54.3916 70.3573 54.3916C70.0797 54.3916 69.8417 54.3519 69.6434 54.2725C69.4451 54.1931 69.3262 54.074 69.2072 53.9549C69.0882 53.7962 69.0089 53.6374 68.9692 53.4389C68.9296 53.2404 68.8899 53.0022 68.8899 52.6846V48.9531L69.6434 48.834V50.1043Z" fill="white"/>
<path d="M74.1649 49.9854C74.4822 49.9854 74.7201 50.025 74.9184 50.1044C75.1167 50.1838 75.2754 50.3029 75.434 50.422C75.553 50.5808 75.6323 50.7396 75.7116 50.9381C75.7513 51.1366 75.791 51.3351 75.791 51.5732V54.1933C75.7116 54.1933 75.6323 54.233 75.5133 54.233C75.3943 54.233 75.2754 54.2727 75.1167 54.2727C74.9581 54.2727 74.7994 54.3124 74.6408 54.3124C74.4822 54.3124 74.3235 54.3521 74.1252 54.3521C73.8873 54.3521 73.689 54.3124 73.4907 54.2727C73.2924 54.233 73.1337 54.1536 72.9751 54.0345C72.8164 53.9154 72.7371 53.7963 72.6181 53.6375C72.5388 53.4787 72.4991 53.2405 72.4991 53.0024C72.4991 52.7642 72.5388 52.5657 72.6578 52.4069C72.7371 52.2481 72.8957 52.0893 73.0544 52.0099C73.213 51.8908 73.4113 51.8511 73.6096 51.7717C73.8079 51.732 74.0459 51.6923 74.2839 51.6923C74.3632 51.6923 74.4425 51.6923 74.5218 51.6923C74.6011 51.6923 74.6805 51.6923 74.7598 51.732C74.8391 51.732 74.8788 51.7717 74.9581 51.7717C74.9977 51.7717 75.0374 51.7717 75.0771 51.8114V51.6129C75.0771 51.4939 75.0771 51.3748 75.0374 51.2557C74.9977 51.1366 74.9581 51.0175 74.8788 50.9381C74.7994 50.8587 74.7201 50.7793 74.6011 50.6999C74.4822 50.6602 74.3235 50.6205 74.1252 50.6205C73.8873 50.6205 73.6493 50.6205 73.4907 50.6602C73.2924 50.6999 73.1734 50.7396 73.0941 50.7793L73.0147 50.1441C73.0941 50.1044 73.2527 50.0647 73.4907 50.025C73.6493 50.025 73.8873 49.9854 74.1649 49.9854ZM74.2442 53.7169C74.4028 53.7169 74.5615 53.7169 74.7201 53.7169C74.8391 53.7169 74.9581 53.6772 75.0771 53.6772V52.4466C75.0374 52.4069 74.9184 52.4069 74.7994 52.3672C74.6805 52.3672 74.5218 52.3275 74.3632 52.3275C74.2442 52.3275 74.1252 52.3275 74.0062 52.3672C73.8873 52.3672 73.7683 52.4069 73.6493 52.4863C73.5303 52.526 73.451 52.6054 73.3717 52.6848C73.2924 52.7642 73.2527 52.8833 73.2527 53.0421C73.2527 53.3199 73.332 53.4787 73.4907 53.5978C73.689 53.6772 73.9269 53.7169 74.2442 53.7169Z" fill="white"/>
<path d="M78.8051 54.3523C78.3292 54.3523 78.0119 54.2332 77.8136 54.0744C77.6153 53.8759 77.536 53.598 77.536 53.201V48.1992L78.2896 48.0801V53.082C78.2896 53.201 78.2896 53.3201 78.3292 53.3995C78.3689 53.4789 78.3689 53.5583 78.4482 53.598C78.4879 53.6377 78.5672 53.6774 78.6465 53.7171C78.7258 53.7568 78.8448 53.7568 78.9241 53.7965L78.8051 54.3523Z" fill="white"/>
</svg>
