<svg width="131" height="82" viewBox="0 0 131 82" fill="none" xmlns="http://www.w3.org/2000/svg">
<path d="M69.578 45.3474C69.578 45.3474 67.6773 47.6811 65.512 47.6811C63.3467 47.6811 61.4461 45.3474 61.4461 45.3474C61.4461 45.3474 63.3467 43.0137 65.512 43.0137C67.6533 43.0137 69.578 45.3474 69.578 45.3474ZM73.4755 41.2814C71.1418 41.2814 69.578 43.543 69.578 43.543C69.578 43.543 71.6229 46.1172 73.5717 46.1172C75.9054 46.1172 77.4692 44.0723 77.4692 44.0723C77.4692 44.0723 75.8092 41.2814 73.4755 41.2814ZM79.6345 37.3839C77.4452 38.1538 76.6753 40.8003 76.6753 40.8003C76.6753 40.8003 79.442 42.5806 81.2946 41.931C83.4839 41.1611 84.326 38.7312 84.326 38.7312C84.326 38.7312 81.8239 36.614 79.6345 37.3839ZM83.8929 31.6339C82.0885 33.1015 82.305 35.8682 82.305 35.8682C82.305 35.8682 85.5049 36.5659 87.0446 35.3389C88.849 33.8713 88.7769 31.297 88.7769 31.297C88.7769 31.297 85.6973 30.1663 83.8929 31.6339ZM86.0823 24.729C84.8793 26.7259 86.0101 29.2521 86.0101 29.2521C86.0101 29.2521 89.2821 28.8431 90.2926 27.1589C91.4955 25.1621 90.5572 22.7562 90.5572 22.7562C90.5572 22.7562 87.2852 22.7321 86.0823 24.729ZM85.6011 17.5835C85.144 19.8691 87.0687 21.866 87.0687 21.866C87.0687 21.866 90.0039 20.3744 90.3888 18.4497C90.8459 16.1641 89.1618 14.2153 89.1618 14.2153C89.1618 14.2153 86.0582 15.298 85.6011 17.5835ZM82.8584 11.0636C83.2674 13.3492 85.7695 14.5281 85.7695 14.5281C85.7695 14.5281 87.9589 12.0741 87.622 10.1494C87.213 7.86381 84.9515 6.66087 84.9515 6.66087C84.9515 6.66087 82.4494 8.75398 82.8584 11.0636ZM77.8542 5.6504C78.9128 7.71945 81.6555 8.08033 81.6555 8.08033C81.6555 8.08033 83.0268 5.09705 82.1366 3.34076C81.078 1.2717 78.5519 0.790527 78.5519 0.790527C78.5519 0.790527 76.7956 3.58134 77.8542 5.6504ZM53.5308 44.0963C53.5308 44.0963 55.1186 46.1413 57.4283 46.1413C59.4011 46.1413 61.422 43.567 61.422 43.567C61.422 43.567 59.8342 41.3055 57.5245 41.3055C55.2149 41.2814 53.5308 44.0963 53.5308 44.0963ZM46.674 38.7312C46.674 38.7312 47.492 41.1611 49.7054 41.931C51.5579 42.5806 54.3247 40.8003 54.3247 40.8003C54.3247 40.8003 53.5789 38.1297 51.3655 37.3839C49.1521 36.6381 46.674 38.7312 46.674 38.7312ZM42.2472 31.297C42.2472 31.297 42.175 33.8713 43.9794 35.3389C45.4951 36.59 48.719 35.8682 48.719 35.8682C48.719 35.8682 48.9355 33.1015 47.1311 31.6339C45.3267 30.1663 42.2472 31.297 42.2472 31.297ZM40.4428 22.7562C40.4428 22.7562 39.5045 25.1621 40.7074 27.1589C41.7179 28.8431 44.9899 29.2521 44.9899 29.2521C44.9899 29.2521 46.1207 26.7259 44.9177 24.729C43.7148 22.7321 40.4428 22.7562 40.4428 22.7562ZM41.8623 14.2153C41.8623 14.2153 40.1781 16.1641 40.6353 18.4497C41.0202 20.3744 43.9554 21.866 43.9554 21.866C43.9554 21.866 45.8801 19.8691 45.4229 17.5835C44.9418 15.298 41.8623 14.2153 41.8623 14.2153ZM46.0725 6.63681C46.0725 6.63681 43.787 7.83975 43.402 10.1253C43.0652 12.05 45.2545 14.504 45.2545 14.504C45.2545 14.504 47.7566 13.3492 48.1656 11.0396C48.5506 8.75398 46.0725 6.63681 46.0725 6.63681ZM52.4722 0.814586C52.4722 0.814586 49.946 1.29576 48.8874 3.36482C47.9972 5.12111 49.3686 8.10439 49.3686 8.10439C49.3686 8.10439 52.1113 7.74351 53.1699 5.67446C54.2285 3.58134 52.4722 0.814586 52.4722 0.814586Z" fill="#0C0E0F"/>
<path d="M72.9943 28.434C72.1763 28.434 71.4305 28.6746 70.805 29.1076L67.4367 25.3304L76.6753 12.1221C77.0603 11.5688 76.6994 10.6064 76.6994 10.6064L65.512 23.1651L54.3247 10.6064C54.3247 10.6064 53.9638 11.5688 54.3488 12.1221L63.5873 25.3304L60.2191 29.1076C59.5936 28.6746 58.8478 28.434 58.0298 28.434C55.8885 28.434 54.1563 30.1662 54.1563 32.3075C54.1563 34.4487 55.8885 36.1809 58.0298 36.1809C59.7139 36.1809 61.1574 35.0983 61.6626 33.6066L65.488 28.1212L69.3133 33.6066C69.8426 35.1223 71.2621 36.1809 72.9462 36.1809C75.0874 36.1809 76.8197 34.4487 76.8197 32.3075C76.8437 30.1662 75.1115 28.434 72.9943 28.434ZM57.8854 34.4006C56.6584 34.4006 55.672 33.4142 55.672 32.1872C55.672 30.9602 56.6584 29.9738 57.8854 29.9738C59.1124 29.9738 60.0988 30.9602 60.0988 32.1872C60.0988 33.4142 59.1124 34.4006 57.8854 34.4006ZM65.512 25.5469C65.1993 25.5469 64.9587 25.3064 64.9587 24.9936C64.9587 24.6808 65.1993 24.4402 65.512 24.4402C65.8248 24.4402 66.0654 24.6808 66.0654 24.9936C66.0654 25.3064 65.8008 25.5469 65.512 25.5469ZM72.8259 34.4006C71.5989 34.4006 70.6125 33.4142 70.6125 32.1872C70.6125 30.9602 71.5989 29.9738 72.8259 29.9738C74.0529 29.9738 75.0393 30.9602 75.0393 32.1872C75.0393 33.4142 74.0529 34.4006 72.8259 34.4006Z" fill="#0C0E0F"/>
<path d="M4.3787 66.1099V68.9489C4.3787 69.5022 4.52305 69.8872 4.78769 70.1037C5.02828 70.2721 5.43728 70.3684 6.01469 70.3684H6.5921V71.1142H0.0962351V70.3684H0.38494C0.890174 70.3684 1.227 70.3202 1.39541 70.1999C1.61194 70.0556 1.73223 69.7428 1.73223 69.2857V61.1057C1.73223 60.5524 1.56382 60.1915 1.227 60.0953C1.03453 60.0231 0.769881 59.999 0.408999 59.999H0V59.2532C0.697704 59.2051 1.70817 59.1329 3.07952 59.0367C4.52305 58.9645 5.53352 58.9404 6.11093 58.9404C7.84316 58.9404 9.16639 59.3013 10.1047 60.0471C10.9467 60.7208 11.3798 61.611 11.3798 62.6695C11.3798 64.3777 10.4415 65.4844 8.56492 66.0378C7.96345 66.2062 7.28981 66.3024 6.56804 66.3024C5.84628 66.3024 5.12452 66.2302 4.3787 66.1099ZM4.3787 59.9268V65.3401C4.76364 65.4363 5.24481 65.4844 5.75005 65.4844C6.95298 65.4844 7.74692 65.0514 8.20404 64.1612C8.42057 63.7281 8.5168 63.1988 8.5168 62.5974C8.5168 61.7312 8.27622 61.0335 7.77098 60.5524C7.28981 60.0712 6.5921 59.8065 5.72599 59.8065C5.29293 59.7825 4.83581 59.8306 4.3787 59.9268Z" fill="#0C0E0F"/>
<path d="M12.9196 59.999V59.2532H18.9824V59.999H18.6696C17.7073 59.999 17.2261 60.4802 17.2261 61.4425V68.997C17.2261 69.5022 17.3464 69.8631 17.587 70.0796C17.8275 70.2961 18.2125 70.3924 18.7177 70.3924H19.0064V71.1382H12.9436V70.3924H13.2083C14.1225 70.3924 14.6037 69.9593 14.6037 69.0691V61.4425C14.6037 60.9373 14.5074 60.5523 14.2909 60.3358C14.0744 60.1193 13.7135 59.999 13.2083 59.999H12.9196Z" fill="#0C0E0F"/>
<path d="M28.7021 60.2396V68.9248C28.7021 69.4782 28.8465 69.8631 29.1111 70.0797C29.3517 70.2481 29.7607 70.3443 30.3622 70.3443H30.8193V71.0901H23.9625V70.3443H24.6121C25.5985 70.3443 26.0797 69.8631 26.0797 68.9248V60.2396H23.8182C23.3611 60.2396 23.0483 60.2637 22.8318 60.3359C22.519 60.4321 22.2784 60.6486 22.1341 60.9614C22.0138 61.2501 21.8694 61.7553 21.7491 62.4771H20.9792L21.3161 58.9164H21.9416C22.11 59.0848 22.2303 59.157 22.3025 59.181C22.4228 59.2292 22.6152 59.2292 22.8558 59.2292H31.926C32.2869 59.2292 32.5996 59.1089 32.8402 58.8923H33.4658L33.8026 62.453H33.0327C32.9365 61.8756 32.8402 61.4666 32.7921 61.2742C32.6237 60.793 32.4072 60.4802 32.1185 60.3599C31.8779 60.2637 31.4929 60.2156 30.9877 60.2156H28.7021V60.2396Z" fill="#0C0E0F"/>
<path d="M45.7117 62.02C45.6395 61.4426 45.5433 61.0336 45.423 60.8171C45.2305 60.4803 44.8937 60.2878 44.4125 60.2878H40.2263V64.5703H43.3058C43.811 64.5703 44.196 64.474 44.4125 64.2575C44.629 64.041 44.7493 63.7042 44.7493 63.1989H45.5192V67.0002H44.7493C44.7493 66.3266 44.5328 65.8935 44.1238 65.7492C43.8832 65.6529 43.4983 65.6289 43.0171 65.6289H40.2263V69.0693C40.2263 69.4061 40.2503 69.6467 40.3225 69.767C40.4188 69.9594 40.6112 70.0557 40.924 70.0557H44.0997C44.7975 70.0557 45.3027 69.9113 45.6155 69.5986C45.9042 69.3339 46.1207 68.8287 46.2891 68.131H47.0109L46.7943 71.1383H35.3183V70.3925H36.0882C37.0746 70.3925 37.5798 69.9354 37.5798 69.0211V61.4186C37.5798 60.8652 37.4355 60.4803 37.1708 60.2638C36.9302 60.0953 36.5212 60.0232 35.9198 60.0232H35.7273V59.2773H46.2169L46.4094 62.0441H45.7117V62.02Z" fill="#0C0E0F"/>
<path d="M53.6029 66.0619V68.973C53.6029 69.8873 54.1081 70.3685 55.1186 70.3685H55.696V71.1143H49.0317V70.3685H49.3445C49.9219 70.3685 50.3309 70.2722 50.5715 70.1038C50.8602 69.8873 51.0046 69.5264 51.0046 68.973V61.4427C51.0046 60.8893 50.8843 60.5044 50.6677 60.3119C50.4512 60.1194 50.0422 59.9991 49.4889 59.9991H49.0799V59.2533L51.5338 59.109C52.833 59.0127 53.8675 58.9646 54.6615 58.9646C56.081 58.9646 57.1877 59.0608 58.0057 59.2533C58.8237 59.4458 59.4492 59.7826 59.9304 60.2878C60.5318 60.8893 60.8446 61.6111 60.8446 62.4531C60.8446 63.9929 59.9063 65.0034 58.0297 65.5326C58.4628 65.8935 58.9921 66.4709 59.5695 67.2649C59.9304 67.7701 60.5078 68.4919 61.3017 69.4302C61.6867 69.8151 62.0716 70.0798 62.4565 70.2482C62.7934 70.3925 63.2505 70.4887 63.8279 70.5609V71.3067C63.5392 71.3308 63.1542 71.3308 62.649 71.3308C61.1574 71.3308 60.0988 71.1624 59.4251 70.8256C59.0642 70.6572 58.7274 70.4166 58.4147 70.0798C58.0778 69.7429 57.6688 69.2618 57.2358 68.6362L56.1291 67.1205C55.8404 66.7596 55.5276 66.3988 55.1427 66.0619H53.6029ZM53.6029 59.7826V65.268H54.3487C55.4795 65.268 56.3215 65.0996 56.899 64.7387C57.6207 64.3056 57.9816 63.5598 57.9816 62.5253C57.9816 60.6968 56.8508 59.7826 54.5893 59.7826H53.6029Z" fill="#0C0E0F"/>
<path d="M66.1135 71.0662L65.6323 67.6017H66.3781C67.0037 69.5023 68.0863 70.4647 69.6261 70.4647C70.4922 70.4647 71.1418 70.1519 71.5508 69.5505C71.7433 69.2617 71.8395 68.949 71.8395 68.6122C71.8395 67.9626 71.4786 67.3611 70.7809 66.8318C70.5163 66.6393 69.8907 66.2785 68.8562 65.7251C67.8457 65.1958 67.124 64.7387 66.715 64.3297C66.0654 63.7042 65.7286 62.9584 65.7286 62.0682C65.7286 61.3705 65.9451 60.7449 66.3781 60.2397C66.7871 59.7585 67.3405 59.3977 68.0382 59.1811C68.5194 59.0368 69.0246 58.9646 69.602 58.9646C70.2275 58.9646 70.7809 59.0368 71.2861 59.1571C72.056 59.3736 72.441 59.4698 72.4891 59.4698C72.6334 59.4698 72.7778 59.3977 72.8981 59.2533H73.3071L73.668 62.3328H72.8981C72.7056 61.587 72.3207 60.9855 71.7914 60.5044C71.214 60.0232 70.5644 59.7585 69.7945 59.7585C69.3374 59.7585 68.9284 59.8548 68.5675 60.0713C68.1344 60.3119 67.9179 60.6487 67.9179 61.0818C67.9179 61.6351 68.2547 62.1404 68.9524 62.5975C69.5298 62.9102 70.1073 63.223 70.6847 63.5358C71.7914 64.1613 72.6334 64.7387 73.2108 65.2921C73.9326 66.0138 74.2935 66.8559 74.2935 67.8182C74.2935 69.1896 73.6198 70.2241 72.2725 70.8977C71.647 71.2105 70.9493 71.3789 70.2276 71.3789C69.7704 71.3789 69.169 71.2827 68.375 71.0662C67.5811 70.8496 67.124 70.7534 66.9556 70.7534C66.7871 70.7534 66.6428 70.8496 66.5466 71.0662H66.1135Z" fill="#0C0E0F"/>
<path d="M84.0132 60.2396V68.9248C84.0132 69.4782 84.1576 69.8631 84.4222 70.0797C84.6628 70.2481 85.0718 70.3443 85.6733 70.3443H86.1304V71.0901H79.2736V70.3443H79.9232C80.9096 70.3443 81.3908 69.8631 81.3908 68.9248V60.2396H79.1293C78.6722 60.2396 78.3594 60.2637 78.1429 60.3359C77.8301 60.4321 77.5895 60.6486 77.4452 60.9614C77.3249 61.2501 77.1805 61.7553 77.0602 62.4771H76.2903L76.6272 58.9164H77.2527C77.4211 59.0848 77.5414 59.157 77.6136 59.181C77.7339 59.2292 77.9263 59.2292 78.1669 59.2292H87.2371C87.598 59.2292 87.9107 59.1089 88.1513 58.8923H88.7768L89.1137 62.453H88.3438C88.2476 61.8756 88.1513 61.4666 88.1032 61.2742C87.9348 60.793 87.7183 60.4802 87.4296 60.3599C87.189 60.2637 86.804 60.2156 86.2988 60.2156H84.0132V60.2396Z" fill="#0C0E0F"/>
<path d="M99.5552 66.3266V68.949C99.5552 69.5986 99.7717 70.0076 100.181 70.2C100.421 70.2963 100.758 70.3685 101.215 70.3685H101.504V71.1143H95.0081V70.3685H95.4892C96.4516 70.3685 96.9328 69.9113 96.9328 68.9971V66.3506L92.8428 60.8893C92.5059 60.4322 92.1691 60.1435 91.8564 60.0713C91.6639 60.0232 91.4233 59.9991 91.1105 59.9991H90.9662V59.2533H97.1733V59.9991H96.9328C96.4035 59.9991 96.0907 60.0954 95.9463 60.2638C95.8261 60.4562 95.8501 60.6728 96.0666 60.9615L99.1221 64.9793L101.336 61.5148C101.576 61.1539 101.696 60.8412 101.696 60.6006C101.696 60.1916 101.36 59.9751 100.662 59.9751H100.421V59.2292H104.92V59.9751C104.367 60.0232 103.934 60.1194 103.669 60.3119C103.405 60.4803 103.116 60.7931 102.803 61.2983L99.5552 66.3266Z" fill="#0C0E0F"/>
<path d="M118.369 67.7941L116.974 71.1143H106.773V70.3684H107.086C107.855 70.3684 108.337 70.176 108.529 69.791C108.625 69.5986 108.673 69.3339 108.673 69.0211V61.3945C108.673 60.4803 108.168 60.0232 107.182 60.0232H106.821V59.2773H113.269V60.0232H112.715C111.777 60.0232 111.296 60.4562 111.296 61.3464V69.1896C111.296 69.5264 111.368 69.767 111.512 69.8873C111.657 70.0076 111.897 70.0557 112.258 70.0557H114.688C115.386 70.0557 115.987 69.791 116.444 69.2617C116.661 69.0211 117.046 68.54 117.623 67.7941H118.369Z" fill="#0C0E0F"/>
<path d="M129.701 62.02C129.629 61.4426 129.532 61.0336 129.412 60.8171C129.22 60.4803 128.883 60.2878 128.402 60.2878H124.215V64.5703H127.295C127.8 64.5703 128.185 64.474 128.402 64.2575C128.618 64.041 128.738 63.7042 128.738 63.1989H129.508V67.0002H128.738C128.738 66.3266 128.522 65.8935 128.113 65.7492C127.872 65.6529 127.487 65.6289 127.006 65.6289H124.215V69.0693C124.215 69.4061 124.239 69.6467 124.312 69.767C124.408 69.9594 124.6 70.0557 124.913 70.0557H128.089C128.787 70.0557 129.292 69.9113 129.605 69.5986C129.893 69.3339 130.11 68.8287 130.278 68.131H131L130.783 71.1383H119.307V70.3925H120.077C121.064 70.3925 121.569 69.9354 121.569 69.0211V61.4186C121.569 60.8652 121.425 60.4803 121.16 60.2638C120.919 60.0953 120.51 60.0232 119.909 60.0232H119.716V59.2773H130.206L130.399 62.0441H129.701V62.02Z" fill="#0C0E0F"/>
<path d="M34.7409 81.8207V77.7307H36.2807C36.5934 77.7307 36.834 77.7788 37.0265 77.851C37.219 77.9232 37.3633 78.0675 37.4595 78.2359C37.5558 78.4044 37.628 78.5968 37.628 78.7652C37.628 78.9337 37.5798 79.1021 37.4836 79.2705C37.3874 79.4148 37.243 79.5592 37.0505 79.6554C37.2911 79.7276 37.4836 79.8479 37.628 80.0163C37.7723 80.1847 37.8204 80.4012 37.8204 80.6418C37.8204 80.8343 37.7723 81.0027 37.7001 81.1711C37.628 81.3395 37.5077 81.4598 37.4114 81.5561C37.2911 81.6523 37.1468 81.7245 36.9543 81.7485C36.7859 81.7966 36.5453 81.8207 36.3047 81.8207H34.7409ZM35.2943 79.4629H36.1844C36.425 79.4629 36.5934 79.4389 36.6897 79.4148C36.834 79.3667 36.9303 79.2945 37.0024 79.2224C37.0746 79.1502 37.0987 79.0058 37.0987 78.8615C37.0987 78.7171 37.0746 78.5968 37.0024 78.5006C36.9303 78.4044 36.834 78.3322 36.7137 78.2841C36.5934 78.236 36.3769 78.2359 36.0882 78.2359H35.2702V79.4629H35.2943ZM35.2943 81.3395H36.3047C36.4731 81.3395 36.5934 81.3395 36.6656 81.3155C36.7859 81.2914 36.9062 81.2674 36.9784 81.1952C37.0505 81.1471 37.1227 81.0749 37.1949 80.9786C37.243 80.8824 37.2671 80.7621 37.2671 80.6418C37.2671 80.4975 37.219 80.3531 37.1468 80.2328C37.0746 80.1125 36.9543 80.0404 36.81 79.9922C36.6656 79.9441 36.4731 79.9201 36.2085 79.9201H35.2702V81.3395H35.2943Z" fill="#0C0E0F"/>
<path d="M40.2744 81.8207V77.7307H43.2336V78.2119H40.8278V79.4629H43.0893V79.9441H40.8278V81.3395H43.3299V81.8207H40.2744Z" fill="#0C0E0F"/>
<path d="M45.447 81.8207L47.0108 77.7307H47.5883L49.2724 81.8207H48.6468L48.1657 80.5697H46.4575L46.0004 81.8207H45.447ZM46.6259 80.1607H48.0213L47.5883 79.0299C47.468 78.6931 47.3717 78.4044 47.2995 78.1878C47.2514 78.4525 47.1793 78.7171 47.083 78.9577L46.6259 80.1607Z" fill="#0C0E0F"/>
<path d="M53.9398 77.7307H54.4932V80.0885C54.4932 80.4975 54.445 80.8343 54.3488 81.0749C54.2526 81.3155 54.0842 81.5079 53.8436 81.6764C53.603 81.8207 53.2902 81.8929 52.8812 81.8929C52.4963 81.8929 52.1835 81.8207 51.9429 81.7004C51.7023 81.5801 51.5339 81.3876 51.4136 81.123C51.3174 80.8824 51.2693 80.5215 51.2693 80.0885V77.7307H51.8226V80.0885C51.8226 80.4494 51.8467 80.714 51.9189 80.8824C51.991 81.0508 52.0873 81.1711 52.2557 81.2674C52.4241 81.3636 52.6166 81.4117 52.8572 81.4117C53.2662 81.4117 53.5308 81.3155 53.6992 81.1471C53.8676 80.9546 53.9639 80.6178 53.9639 80.1125L53.9398 77.7307Z" fill="#0C0E0F"/>
<path d="M58.0779 81.8207V78.2119H56.7306V77.7307H59.9785V78.2119H58.6312V81.8207H58.0779Z" fill="#0C0E0F"/>
<path d="M63.5874 81.8207V80.0885L61.9995 77.7307H62.6491L63.4671 78.9577C63.6114 79.1983 63.7558 79.4148 63.8761 79.6554C63.9964 79.4389 64.1407 79.1983 64.3332 78.9337L65.1272 77.7307H65.7527L64.1167 80.0885V81.8207H63.5874Z" fill="#0C0E0F"/>
<path d="M71.0696 80.5214L71.5749 80.4733C71.5989 80.6899 71.6471 80.8342 71.7433 80.9786C71.8395 81.0988 71.9598 81.2191 72.1523 81.2913C72.3448 81.3635 72.5372 81.4116 72.7778 81.4116C72.9943 81.4116 73.1628 81.3876 73.3312 81.3154C73.4996 81.2432 73.5958 81.171 73.692 81.0748C73.7642 80.9786 73.8123 80.8583 73.8123 80.7139C73.8123 80.5936 73.7642 80.4733 73.692 80.3771C73.6199 80.2809 73.4996 80.2087 73.3312 80.1365C73.2109 80.0884 72.9703 80.0162 72.6094 79.944C72.2485 79.8719 71.9598 79.7756 71.8155 79.6794C71.623 79.5831 71.4786 79.4388 71.3824 79.2944C71.2862 79.1501 71.2381 78.9817 71.2381 78.7892C71.2381 78.5727 71.2862 78.3802 71.4065 78.2118C71.5268 78.0434 71.6952 77.899 71.9117 77.8028C72.1282 77.7066 72.3929 77.6584 72.6575 77.6584C72.9703 77.6584 73.2349 77.7066 73.4515 77.8028C73.692 77.899 73.8605 78.0434 73.9808 78.2359C74.101 78.4283 74.1732 78.6449 74.1732 78.8854L73.6439 78.9336C73.6199 78.6689 73.5236 78.4764 73.3552 78.3562C73.1868 78.2359 72.9462 78.1637 72.6335 78.1637C72.2966 78.1637 72.0561 78.2359 71.9117 78.3321C71.7673 78.4524 71.6952 78.5967 71.6952 78.7652C71.6952 78.9095 71.7433 79.0298 71.8636 79.126C71.9598 79.2223 72.2485 79.3185 72.6816 79.4147C73.1146 79.511 73.4274 79.6072 73.5958 79.6794C73.8364 79.7997 74.0048 79.92 74.1251 80.0884C74.2454 80.2568 74.2935 80.4493 74.2935 80.6658C74.2935 80.8823 74.2213 81.0989 74.101 81.2913C73.9808 81.4838 73.7883 81.6281 73.5718 81.7484C73.3552 81.8687 73.0665 81.9169 72.7778 81.9169C72.4169 81.9169 72.1042 81.8687 71.8395 81.7484C71.5749 81.6281 71.3824 81.4838 71.2621 81.2673C71.1659 81.0267 71.0937 80.7861 71.0696 80.5214Z" fill="#0C0E0F"/>
<path d="M76.2904 81.8207L77.8542 77.7307H78.4316L80.1157 81.8207H79.4902L79.009 80.5697H77.3009L76.8438 81.8207H76.2904ZM77.4693 80.1607H78.8647L78.4316 79.0299C78.3113 78.6931 78.2151 78.4044 78.1429 78.1878C78.0948 78.4525 78.0226 78.7171 77.9264 78.9577L77.4693 80.1607Z" fill="#0C0E0F"/>
<path d="M82.281 81.8207V77.7307H82.8344V81.3395H84.8553V81.8207H82.281Z" fill="#0C0E0F"/>
<path d="M86.78 79.8477C86.78 79.174 86.9725 78.6447 87.3334 78.2598C87.6943 77.8748 88.1754 77.6824 88.7528 77.6824C89.1378 77.6824 89.4746 77.7786 89.7633 77.947C90.0761 78.1395 90.2926 78.3801 90.461 78.6928C90.6294 79.0056 90.7016 79.3905 90.7016 79.7995C90.7016 80.2085 90.6294 80.5935 90.461 80.9062C90.2926 81.219 90.052 81.4837 89.7393 81.6521C89.4265 81.8205 89.0897 81.8927 88.7528 81.8927C88.3679 81.8927 88.0311 81.7964 87.7183 81.6039C87.4056 81.4115 87.189 81.1709 87.0206 80.8341C86.8522 80.5454 86.78 80.2085 86.78 79.8477ZM87.3334 79.8477C87.3334 80.3288 87.4777 80.7378 87.7424 81.0025C88.007 81.2912 88.3438 81.4355 88.7288 81.4355C89.1378 81.4355 89.4746 81.2912 89.7393 81.0025C90.0039 80.7138 90.1242 80.3048 90.1242 79.7755C90.1242 79.4387 90.0761 79.15 89.9558 78.9094C89.8355 78.6688 89.6671 78.4763 89.4505 78.332C89.234 78.1876 88.9934 78.1154 88.7288 78.1154C88.3438 78.1154 88.007 78.2357 87.7424 78.5004C87.4777 78.7891 87.3334 79.2221 87.3334 79.8477Z" fill="#0C0E0F"/>
<path d="M93.0353 81.8207V77.7307H93.5887L95.7299 80.9546V77.7307H96.2592V81.8207H95.7058L93.5646 78.5968V81.8207H93.0353Z" fill="#0C0E0F"/>
</svg>
