<svg width="26" height="17" viewBox="0 0 26 17" fill="none" xmlns="http://www.w3.org/2000/svg">
<path d="M25.4039 1.90017C25.5855 1.27506 25.4039 0.81665 24.5449 0.81665H21.6995C20.9755 0.81665 20.6446 1.21322 20.463 1.64878C20.463 1.64878 19.0162 5.30396 16.9662 7.67398C16.3045 8.36362 16.0021 8.5814 15.6414 8.5814C15.4611 8.5814 15.199 8.36362 15.199 7.73851V1.90017C15.199 1.15004 14.9901 0.81665 14.3867 0.81665H9.91554C9.46401 0.81665 9.19153 1.16348 9.19153 1.49418C9.19153 2.20398 10.2166 2.36799 10.3217 4.36832V8.70776C10.3217 9.65819 10.1569 9.83161 9.79357 9.83161C8.82953 9.83161 6.48364 6.16298 5.09141 1.96335C4.82023 1.14735 4.54646 0.817995 3.81986 0.817995H0.975725C0.162188 0.817995 0 1.21457 0 1.65012C0 2.43251 0.964047 6.30413 4.49067 11.4246C6.84175 14.9212 10.1517 16.8167 13.1671 16.8167C14.9745 16.8167 15.1977 16.3959 15.1977 15.67V13.027C15.1977 12.1855 15.3703 12.0161 15.9425 12.0161C16.3628 12.0161 17.0869 12.2366 18.7749 13.921C20.703 15.9186 21.0222 16.8153 22.1056 16.8153H24.9497C25.762 16.8153 26.1681 16.3945 25.9345 15.5638C25.6789 14.737 24.7577 13.5338 23.5355 12.1102C22.8711 11.2982 21.8785 10.4244 21.5762 9.98755C21.1545 9.42428 21.2765 9.17558 21.5762 8.6755C21.5775 8.67684 25.0432 3.61954 25.4039 1.90017V1.90017Z" fill="#42382E"/>
</svg>
