<svg width="23" height="20" viewBox="0 0 23 20" fill="none" xmlns="http://www.w3.org/2000/svg">
<path d="M11.4667 0.282471C7.83919 0.282471 3.13008 1.19146 3.13008 1.19146L3.11823 1.205C1.46614 1.46906 0.199997 2.88924 0.199997 4.6158V15.0175C0.203382 16.7204 1.44414 18.1693 3.12669 18.4351L3.13008 18.4402C3.13008 18.4402 7.83919 19.3508 11.4667 19.3508C15.0941 19.3508 19.8033 18.4402 19.8033 18.4402L19.8049 18.4385C21.4892 18.1744 22.7316 16.7221 22.7333 15.0175V4.6158C22.7316 2.91125 21.4892 1.46229 19.8066 1.19653L19.8033 1.19146C19.8033 1.19146 15.0941 0.282471 11.4667 0.282471ZM8.86666 5.82778L15.8 9.8158L8.86666 13.8038V5.82778Z" fill="white"/>
</svg>
