<svg width="23" height="20" viewBox="0 0 23 20" fill="none" xmlns="http://www.w3.org/2000/svg">
<path d="M11.4667 0.282471C7.83921 0.282471 3.13009 1.19146 3.13009 1.19146L3.11824 1.205C1.46616 1.46906 0.200012 2.88924 0.200012 4.6158V15.0175C0.203397 16.7204 1.44415 18.1693 3.12671 18.4351L3.13009 18.4402C3.13009 18.4402 7.83921 19.3508 11.4667 19.3508C15.0942 19.3508 19.8033 18.4402 19.8033 18.4402L19.805 18.4385C21.4892 18.1744 22.7317 16.7221 22.7333 15.0175V4.6158C22.7317 2.91125 21.4892 1.46229 19.8067 1.19653L19.8033 1.19146C19.8033 1.19146 15.0942 0.282471 11.4667 0.282471ZM8.86668 5.82778L15.8 9.8158L8.86668 13.8038V5.82778Z" fill="#42382E"/>
</svg>
